<svg width="219" height="164" viewBox="0 0 219 164" fill="none" xmlns="http://www.w3.org/2000/svg">
<path d="M27.0853 80.4267L8.35097 95.2743L38.5909 80.7142L27.0853 80.4267Z" fill="#0047AE"/>
<path d="M70.7131 65.2605L38.6078 80.7089L50.316 80.9857L70.7131 65.2605Z" fill="#0047AE"/>
<path d="M130.421 22.3566L107.353 40.1163L144.046 22.1659L130.421 22.3566Z" fill="#0047AE"/>
<path d="M183.249 3.02891L144.034 22.1784L157.874 22.0083L183.249 3.02891Z" fill="#0047AE"/>
<path d="M48.1423 118.777L35.0555 129.096L56.5804 120.049L48.1423 118.777Z" fill="#0047AE"/>
<path d="M78.9917 110.594L56.5627 120.055L65.1066 121.283L78.9917 110.594Z" fill="#0047AE"/>
<path d="M166.492 68.9299C166.465 68.8189 166.421 68.7133 166.361 68.616C166.243 68.3382 166.06 68.092 165.823 67.894C165.586 67.696 165.302 67.5508 164.988 67.4683C164.675 67.3857 164.341 67.3678 164.008 67.4156C163.675 67.4634 163.351 67.5759 163.059 67.7454C162.418 68.0568 161.905 68.5654 161.617 69.1746C161.329 69.7838 161.286 70.4511 161.496 71.0494C161.496 71.0494 161.588 71.2691 161.627 71.3633C161.042 71.9173 160.628 72.6017 160.435 73.3353C160.242 74.069 160.277 74.8209 160.537 75.502L161.741 78.3896L134.342 86.7547C134.541 85.9973 134.665 85.2303 134.712 84.4636L134.939 81.5321L135.289 77.407C135.418 76.2888 135.265 75.1798 134.842 74.1669C134.42 73.154 133.74 72.2648 132.855 71.5689L148.522 49.5629L149.294 51.4148C149.544 52.119 150.045 52.7085 150.721 53.0924C151.398 53.4763 152.211 53.6332 153.037 53.5389L158.025 61.3331C159.027 62.9418 161.921 61.4407 161.435 59.5801L159.269 50.3142C159.84 49.661 160.231 48.8973 160.404 48.096C160.577 47.2948 160.528 46.4829 160.259 45.7381L152.67 27.5334C152.377 26.7883 151.798 26.1845 151.036 25.8283C150.274 25.472 149.378 25.3861 148.504 25.5857C148.464 25.4431 148.407 25.3062 148.334 25.1777C148.194 24.8543 147.977 24.569 147.696 24.3417C147.416 24.1144 147.08 23.9507 146.712 23.862C146.343 23.7734 145.952 23.7619 145.564 23.8284C145.177 23.895 144.802 24.0379 144.468 24.2472C143.716 24.6489 143.123 25.2756 142.8 26.0127C142.476 26.7498 142.442 27.548 142.705 28.2612C142.742 28.4048 142.799 28.542 142.875 28.6693C142.2 29.3507 141.726 30.1757 141.508 31.0534C141.289 31.9311 141.334 32.8274 141.637 33.6436L146.138 44.4409L127.568 70.6048C126.392 70.714 125.235 71.0579 124.179 71.6124L79.5026 94.844C78.4972 95.3516 77.6156 96.0598 76.9283 96.912L50.42 95.6949L45.9674 85.9088C45.6808 85.264 45.1753 84.7343 44.5212 84.3931C43.8671 84.0519 43.0966 83.916 42.3167 84.0044C42.3167 84.0044 42.2251 83.7847 42.1727 83.6591C42.0617 83.3711 41.8821 83.1138 41.6464 82.9049C41.4106 82.696 41.1243 82.5404 40.8069 82.4488C40.4896 82.3572 40.1487 82.3317 39.8076 82.3741C39.4666 82.4165 39.1334 82.5257 38.831 82.6944C38.2122 83.0684 37.7443 83.6267 37.515 84.2648C37.2857 84.903 37.3106 85.5772 37.5851 86.1613C37.6135 86.2838 37.662 86.4002 37.7291 86.5065C37.2 87.1331 36.8506 87.8648 36.7169 88.6264C36.5832 89.388 36.6701 90.1519 36.9686 90.8395L44.2983 106.832C44.5604 107.418 45.0043 107.911 45.5788 108.252C46.1532 108.592 46.8346 108.768 47.544 108.757L52.1569 115.75C52.3354 116.086 52.6579 116.332 53.0533 116.433C53.4488 116.534 53.8849 116.483 54.2656 116.29C54.6464 116.097 54.9406 115.778 55.0836 115.404C55.2266 115.03 55.2067 114.631 55.0282 114.295L52.6869 106.097C53.1314 105.513 53.4189 104.846 53.523 104.16C53.6271 103.473 53.5446 102.787 53.283 102.165L52.6287 100.595L74.9777 101.667C74.8666 102.718 75.0151 103.759 75.4118 104.71C75.8085 105.662 76.4432 106.5 77.2677 107.16L80.2694 109.593L82.3585 111.227C82.7149 111.502 83.0951 111.75 83.4957 111.969L83.8252 112.163L63.5804 127.162L62.4943 124.557C62.2629 123.999 61.839 123.538 61.2834 123.24C60.7277 122.942 60.069 122.823 59.4016 122.899L59.2708 122.585C59.1715 122.346 59.0186 122.132 58.8212 121.956C58.6238 121.781 58.3861 121.647 58.1228 121.564C57.8594 121.481 57.5759 121.449 57.2895 121.472C57.003 121.494 56.7198 121.57 56.4569 121.695C55.922 121.982 55.5087 122.438 55.3 122.969C55.0914 123.5 55.1029 124.068 55.3323 124.558C55.3602 124.669 55.4042 124.774 55.4631 124.872C55.0112 125.374 54.7057 125.968 54.5793 126.592C54.4529 127.215 54.5103 127.845 54.7453 128.414L60.9314 141.861C61.1514 142.368 61.5285 142.795 62.0189 143.093C62.5094 143.39 63.0931 143.546 63.7026 143.543L67.5543 149.306C67.714 149.548 67.9669 149.724 68.268 149.801C68.5692 149.878 68.8991 149.851 69.1993 149.726C69.4995 149.601 69.7506 149.385 69.9079 149.117C70.0652 148.849 70.1186 148.546 70.0586 148.262L68.0997 141.378C68.4977 140.902 68.7575 140.345 68.8519 139.768C68.9463 139.191 68.8717 138.613 68.636 138.097L65.471 131.2L90.4296 112.91L91.3234 112.869C91.9235 112.817 92.5225 112.728 93.116 112.601C94.3711 112.359 95.5952 111.948 96.7479 111.381L98.1235 110.808C100.146 112.783 102.866 114.044 105.875 114.404C108.884 114.764 112.02 114.202 114.812 112.803C117.769 111.324 120.257 109.107 121.962 106.429C123.667 103.752 124.514 100.733 124.396 97.7543L125.842 97.1514C127.373 96.4008 128.771 95.4188 129.973 94.25C130.533 93.7519 131.041 93.2068 131.489 92.6231L163.767 82.8506L166.96 90.5092C167.211 91.0774 167.644 91.5518 168.205 91.8741C168.766 92.1965 169.431 92.3529 170.118 92.3242L174.297 98.8717C174.512 99.1355 174.822 99.3189 175.179 99.3933C175.536 99.4677 175.919 99.4288 176.269 99.2828C176.619 99.1368 176.917 98.8919 177.115 98.5861C177.313 98.2804 177.401 97.9309 177.365 97.5923L175.542 89.8418C176.043 89.322 176.389 88.6966 176.544 88.0342C176.699 87.3718 176.655 86.698 176.419 86.0866L170.072 70.8636C169.83 70.2 169.345 69.649 168.696 69.2985C168.047 68.948 167.271 68.8183 166.492 68.9299Z" fill="#0047AE"/>
<path d="M136.489 77.5342L162.591 66.357L152.669 65.2989L136.489 77.5342Z" fill="#0047AE"/>
<path d="M172.567 67.454L189.836 54.654L162.547 66.3626L172.567 67.454Z" fill="#0047AE"/>
<g opacity="0.6">
<path d="M27.0853 80.4267L8.35097 95.2743L38.5909 80.7142L27.0853 80.4267Z" fill="white"/>
<path d="M70.7131 65.2605L38.6078 80.7089L50.316 80.9857L70.7131 65.2605Z" fill="white"/>
<path d="M130.421 22.3566L107.353 40.1163L144.046 22.1659L130.421 22.3566Z" fill="white"/>
<path d="M183.249 3.02891L144.034 22.1784L157.874 22.0083L183.249 3.02891Z" fill="white"/>
<path d="M48.1423 118.777L35.0555 129.096L56.5804 120.049L48.1423 118.777Z" fill="white"/>
<path d="M78.9917 110.594L56.5627 120.055L65.1066 121.283L78.9917 110.594Z" fill="white"/>
<path d="M166.492 68.9299C166.465 68.8189 166.421 68.7133 166.361 68.616C166.243 68.3382 166.06 68.092 165.823 67.894C165.586 67.696 165.302 67.5508 164.988 67.4683C164.675 67.3857 164.341 67.3678 164.008 67.4156C163.675 67.4634 163.351 67.5759 163.059 67.7454C162.418 68.0568 161.905 68.5654 161.617 69.1746C161.329 69.7838 161.286 70.4511 161.496 71.0494C161.496 71.0494 161.588 71.2691 161.627 71.3633C161.042 71.9173 160.628 72.6017 160.435 73.3353C160.242 74.069 160.277 74.8209 160.537 75.502L161.741 78.3896L134.342 86.7547C134.541 85.9973 134.665 85.2303 134.712 84.4636L134.939 81.5321L135.289 77.407C135.418 76.2888 135.265 75.1798 134.842 74.1669C134.42 73.154 133.74 72.2648 132.855 71.5689L148.522 49.5629L149.294 51.4148C149.544 52.119 150.045 52.7085 150.721 53.0924C151.398 53.4763 152.211 53.6332 153.037 53.5389L158.025 61.3331C159.027 62.9418 161.921 61.4407 161.435 59.5801L159.269 50.3142C159.84 49.661 160.231 48.8973 160.404 48.096C160.577 47.2948 160.528 46.4829 160.259 45.7381L152.67 27.5334C152.377 26.7883 151.798 26.1845 151.036 25.8283C150.274 25.472 149.378 25.3861 148.504 25.5857C148.464 25.4431 148.407 25.3062 148.334 25.1777C148.194 24.8543 147.977 24.569 147.696 24.3417C147.416 24.1144 147.08 23.9507 146.712 23.862C146.343 23.7734 145.952 23.7619 145.564 23.8284C145.177 23.895 144.802 24.0379 144.468 24.2472C143.716 24.6489 143.123 25.2756 142.8 26.0127C142.476 26.7498 142.442 27.548 142.705 28.2612C142.742 28.4048 142.799 28.542 142.875 28.6693C142.2 29.3507 141.726 30.1757 141.508 31.0534C141.289 31.9311 141.334 32.8274 141.637 33.6436L146.138 44.4409L127.568 70.6048C126.392 70.714 125.235 71.0579 124.179 71.6124L79.5026 94.844C78.4972 95.3516 77.6156 96.0598 76.9283 96.912L50.42 95.6949L45.9674 85.9088C45.6808 85.264 45.1753 84.7343 44.5212 84.3931C43.8671 84.0519 43.0966 83.916 42.3167 84.0044C42.3167 84.0044 42.2251 83.7847 42.1727 83.6591C42.0617 83.3711 41.8821 83.1138 41.6464 82.9049C41.4106 82.696 41.1243 82.5404 40.8069 82.4488C40.4896 82.3572 40.1487 82.3317 39.8076 82.3741C39.4666 82.4165 39.1334 82.5257 38.831 82.6944C38.2122 83.0684 37.7443 83.6267 37.515 84.2648C37.2857 84.903 37.3106 85.5772 37.5851 86.1613C37.6135 86.2838 37.662 86.4002 37.7291 86.5065C37.2 87.1331 36.8506 87.8648 36.7169 88.6264C36.5832 89.388 36.6701 90.1519 36.9686 90.8395L44.2983 106.832C44.5604 107.418 45.0043 107.911 45.5788 108.252C46.1532 108.592 46.8346 108.768 47.544 108.757L52.1569 115.75C52.3354 116.086 52.6579 116.332 53.0533 116.433C53.4488 116.534 53.8849 116.483 54.2656 116.29C54.6464 116.097 54.9406 115.778 55.0836 115.404C55.2266 115.03 55.2067 114.631 55.0282 114.295L52.6869 106.097C53.1314 105.513 53.4189 104.846 53.523 104.16C53.6271 103.473 53.5446 102.787 53.283 102.165L52.6287 100.595L74.9777 101.667C74.8666 102.718 75.0151 103.759 75.4118 104.71C75.8085 105.662 76.4432 106.5 77.2677 107.16L80.2694 109.593L82.3585 111.227C82.7149 111.502 83.0951 111.75 83.4957 111.969L83.8252 112.163L63.5804 127.162L62.4943 124.557C62.2629 123.999 61.839 123.538 61.2834 123.24C60.7277 122.942 60.069 122.823 59.4016 122.899L59.2708 122.585C59.1715 122.346 59.0186 122.132 58.8212 121.956C58.6238 121.781 58.3861 121.647 58.1228 121.564C57.8594 121.481 57.5759 121.449 57.2895 121.472C57.003 121.494 56.7198 121.57 56.4569 121.695C55.922 121.982 55.5087 122.438 55.3 122.969C55.0914 123.5 55.1029 124.068 55.3323 124.558C55.3602 124.669 55.4042 124.774 55.4631 124.872C55.0112 125.374 54.7057 125.968 54.5793 126.592C54.4529 127.215 54.5103 127.845 54.7453 128.414L60.9314 141.861C61.1514 142.368 61.5285 142.795 62.0189 143.093C62.5094 143.39 63.0931 143.546 63.7026 143.543L67.5543 149.306C67.714 149.548 67.9669 149.724 68.268 149.801C68.5692 149.878 68.8991 149.851 69.1993 149.726C69.4995 149.601 69.7506 149.385 69.9079 149.117C70.0652 148.849 70.1186 148.546 70.0586 148.262L68.0997 141.378C68.4977 140.902 68.7575 140.345 68.8519 139.768C68.9463 139.191 68.8717 138.613 68.636 138.097L65.471 131.2L90.4296 112.91L91.3234 112.869C91.9235 112.817 92.5225 112.728 93.116 112.601C94.3711 112.359 95.5952 111.948 96.7479 111.381L98.1235 110.808C100.146 112.783 102.866 114.044 105.875 114.404C108.884 114.764 112.02 114.202 114.812 112.803C117.769 111.324 120.257 109.107 121.962 106.429C123.667 103.752 124.514 100.733 124.396 97.7543L125.842 97.1514C127.373 96.4008 128.771 95.4188 129.973 94.25C130.533 93.7519 131.041 93.2068 131.489 92.6231L163.767 82.8506L166.96 90.5092C167.211 91.0774 167.644 91.5518 168.205 91.8741C168.766 92.1965 169.431 92.3529 170.118 92.3242L174.297 98.8717C174.512 99.1355 174.822 99.3189 175.179 99.3933C175.536 99.4677 175.919 99.4288 176.269 99.2828C176.619 99.1368 176.917 98.8919 177.115 98.5861C177.313 98.2804 177.401 97.9309 177.365 97.5923L175.542 89.8418C176.043 89.322 176.389 88.6966 176.544 88.0342C176.699 87.3718 176.655 86.698 176.419 86.0866L170.072 70.8636C169.83 70.2 169.345 69.649 168.696 69.2985C168.047 68.948 167.271 68.8183 166.492 68.9299Z" fill="white"/>
<path d="M136.489 77.5342L162.591 66.357L152.669 65.2989L136.489 77.5342Z" fill="white"/>
<path d="M172.567 67.454L189.836 54.654L162.547 66.3626L172.567 67.454Z" fill="white"/>
</g>
</svg>
