<svg width="376" height="280" viewBox="0 0 376 280" fill="none" xmlns="http://www.w3.org/2000/svg">
<path d="M211.718 165.588C212.499 165.328 213.201 164.873 213.74 164.276L286.46 83.4966C287.157 82.6548 287.486 81.6198 287.375 80.6177C287.264 79.6155 286.722 78.7276 285.867 78.1477C285.478 77.8244 285.016 77.5808 284.509 77.4311C284.001 77.2814 283.459 77.2285 282.911 77.2754C282.364 77.3223 281.823 77.4682 281.321 77.7046C280.818 77.9409 280.362 78.2631 279.981 78.6526L206.697 159.518C206.32 159.946 206.035 160.434 205.861 160.952C205.687 161.469 205.627 162.005 205.685 162.527C205.742 163.049 205.916 163.546 206.196 163.987C206.476 164.428 206.855 164.804 207.312 165.092C207.916 165.505 208.634 165.765 209.402 165.852C210.17 165.938 210.965 165.847 211.718 165.588Z" fill="#0047AE"/>
<path d="M307.328 144.859C308.223 144.542 308.989 143.947 309.487 143.182C309.984 142.418 310.18 141.537 310.038 140.7C309.889 139.708 309.331 138.836 308.477 138.26C307.623 137.684 306.536 137.447 305.435 137.595L207.489 152.538C206.917 152.612 206.357 152.794 205.846 153.072C205.335 153.35 204.883 153.717 204.518 154.151C204.153 154.586 203.884 155.078 203.727 155.596C203.57 156.115 203.529 156.648 203.606 157.164C203.806 158.233 204.447 159.157 205.398 159.753C206.349 160.348 207.54 160.569 208.732 160.372L306.546 145.057L307.328 144.859Z" fill="#0047AE"/>
<path d="M211.698 165.586C212.41 165.35 213.057 164.949 213.572 164.423C214.087 163.897 214.452 163.266 214.63 162.594C214.867 161.519 214.647 160.436 214.015 159.574C213.383 158.712 212.39 158.14 211.246 157.979L87.5149 137.472C86.9148 137.311 86.274 137.271 85.634 137.354C84.9941 137.437 84.3691 137.642 83.7996 137.956C83.23 138.269 82.7286 138.684 82.3276 139.174C81.9267 139.664 81.6352 140.217 81.472 140.799C81.3089 141.381 81.2776 141.977 81.3803 142.55C81.483 143.123 81.7173 143.66 82.0682 144.126C82.419 144.592 82.8785 144.977 83.4171 145.255C83.9556 145.533 84.5611 145.699 85.1945 145.742L209.262 165.788C210.062 165.916 210.902 165.847 211.698 165.586Z" fill="#0047AE"/>
<path d="M115.169 211.361C115.473 211.267 115.768 211.144 116.049 210.995L210.379 159.84C210.889 159.568 211.341 159.205 211.705 158.774C212.069 158.344 212.337 157.856 212.493 157.341C212.649 156.826 212.689 156.295 212.611 155.783C212.533 155.271 212.338 154.788 212.038 154.366C211.426 153.47 210.453 152.846 209.309 152.614C208.165 152.383 206.933 152.562 205.854 153.115L111.114 204.035C110.562 204.317 110.07 204.698 109.672 205.153C109.273 205.609 108.977 206.128 108.801 206.678C108.625 207.229 108.573 207.798 108.65 208.348C108.727 208.898 108.93 209.418 109.246 209.874C109.879 210.687 110.795 211.269 111.861 211.537C112.927 211.805 114.086 211.743 115.169 211.361Z" fill="#0047AE"/>
<path d="M288.059 99.2333L291.789 98.0449C292.63 97.7694 293.414 97.3393 294.09 96.7821C294.766 96.225 295.32 95.5531 295.715 94.8095C296.111 94.0658 296.34 93.2669 296.387 92.4638C296.435 91.6608 296.3 90.8713 295.991 90.146L285.333 61.7535C284.752 60.1802 283.547 58.905 281.945 58.1673C280.344 57.4296 278.455 57.2802 276.635 57.7472L272.847 58.8531C271.992 59.1119 271.191 59.531 270.498 60.0828C269.806 60.6346 269.236 61.3064 268.828 62.0538C268.419 62.8011 268.181 63.607 268.129 64.418C268.077 65.229 268.213 66.0266 268.527 66.7581L279.414 95.3545C279.997 96.9084 281.201 98.1623 282.795 98.8775C284.389 99.5927 286.263 99.7193 288.059 99.2333Z" fill="#0047AE"/>
<path d="M292.142 112.365L281.993 94.311C281.798 94.006 281.686 93.6581 281.664 93.2939C281.642 92.9297 281.712 92.5588 281.868 92.2096C282.024 91.8604 282.261 91.5421 282.563 91.2791C282.864 91.0161 283.222 90.8153 283.607 90.6921L289.556 88.8371C289.955 88.7255 290.368 88.6872 290.771 88.7247C291.173 88.7622 291.556 88.8746 291.897 89.0552C292.239 89.2358 292.532 89.481 292.759 89.7763C292.985 90.0715 293.141 90.4107 293.218 90.7739L297.383 110.655C297.502 111.261 297.366 111.905 297.002 112.46C296.638 113.016 296.072 113.443 295.415 113.657C294.758 113.871 294.059 113.857 293.453 113.618C292.848 113.379 292.38 112.932 292.142 112.365Z" fill="#0047AE"/>
<path d="M270.307 59.3713C270.708 60.4276 271.53 61.279 272.616 61.7639C273.703 62.2489 274.978 62.3337 276.201 62.0024C276.765 61.8352 277.293 61.5613 277.749 61.1992C278.206 60.8371 278.582 60.3952 278.85 59.9031C279.118 59.4111 279.273 58.8804 279.305 58.3468C279.337 57.8131 279.244 57.2888 279.033 56.8093C278.653 55.7566 277.852 54.9021 276.784 54.409C275.716 53.9159 274.454 53.8186 273.241 54.1356C272.665 54.2947 272.124 54.5642 271.654 54.9256C271.184 55.287 270.796 55.7317 270.517 56.2292C270.238 56.7266 270.075 57.2651 270.039 57.8075C270.003 58.3498 270.094 58.8833 270.307 59.3713Z" fill="#0047AE"/>
<path d="M272.199 51.6471L285.843 37.1938L326.686 32.3353L272.199 51.6471Z" fill="#0047AE"/>
<path d="M272.212 51.644L258.36 66.2904L214.367 72.1172L272.212 51.644Z" fill="#0047AE"/>
<path d="M91.64 161.704L96.198 160.257C97.18 159.988 98.1057 159.533 98.9134 158.924C99.721 158.314 100.392 157.563 100.882 156.721C101.372 155.878 101.669 154.964 101.754 154.039C101.839 153.113 101.71 152.198 101.375 151.354L88.6026 120.36C87.7568 118.584 86.2282 117.194 84.2878 116.437C82.3474 115.68 80.1209 115.606 78.003 116.226L73.3867 117.591C72.3864 117.833 71.4375 118.27 70.6065 118.87C69.7755 119.471 69.0823 120.221 68.5754 121.069C68.0685 121.916 67.7602 122.84 67.6719 123.777C67.5836 124.713 67.7174 125.639 68.0641 126.49L81.098 157.824C81.9556 159.567 83.4904 160.917 85.4243 161.628C87.3582 162.34 89.5632 162.367 91.64 161.704Z" fill="#0047AE"/>
<path d="M96.5335 176.034L84.2573 156.388C84.0367 156.037 83.9138 155.636 83.8987 155.218C83.8836 154.799 83.9767 154.375 84.1704 153.98C84.364 153.585 84.6528 153.231 85.0132 152.945C85.3736 152.659 85.7953 152.451 86.2441 152.336L93.5065 150.063C94.4374 149.762 95.4293 149.805 96.2653 150.182C97.1013 150.559 97.7131 151.239 97.9668 152.073L102.925 173.974C103.64 177.136 98.3173 178.88 96.5335 176.034Z" fill="#0047AE"/>
<path d="M70.2658 118.174C70.8296 119.362 71.8533 120.289 73.1527 120.79C74.4522 121.291 75.942 121.332 77.3544 120.906C78.0126 120.748 78.637 120.461 79.1838 120.066C79.7305 119.671 80.1864 119.177 80.5193 118.619C80.8522 118.061 81.0542 117.453 81.111 116.837C81.1677 116.221 81.078 115.612 80.848 115.053C80.2858 113.866 79.2658 112.936 77.9697 112.431C76.6737 111.925 75.186 111.877 73.7722 112.294C73.1095 112.451 72.4803 112.737 71.9294 113.134C71.3785 113.53 70.9193 114.027 70.5846 114.588C70.2499 115.149 70.0479 115.761 69.9927 116.381C69.9376 117.001 70.0309 117.613 70.2658 118.174Z" fill="#0047AE"/>
<path d="M72.6753 109.525L89.4122 93.1015L139.112 86.396L72.6753 109.525Z" fill="#0047AE"/>
<path d="M72.6507 109.522L55.6062 126.244L1.64062 134.232L72.6507 109.522Z" fill="#0047AE"/>
<path d="M311.772 161.36L314.889 160.255C315.599 159.992 316.255 159.603 316.82 159.113C317.384 158.622 317.845 158.04 318.175 157.401C318.504 156.762 318.696 156.079 318.739 155.392C318.781 154.705 318.674 154.029 318.423 153.403L309.456 129.54C308.974 128.224 307.952 127.168 306.595 126.583C305.239 125.998 303.649 125.928 302.145 126.387L298.985 127.445C298.265 127.698 297.597 128.08 297.021 128.567C296.446 129.055 295.975 129.638 295.637 130.28C295.3 130.922 295.103 131.61 295.059 132.302C295.016 132.994 295.125 133.676 295.382 134.305L304.45 158.297C304.929 159.613 305.957 160.665 307.321 161.235C308.685 161.806 310.279 161.85 311.772 161.36Z" fill="#0047AE"/>
<path d="M315.188 172.366L306.653 157.271C306.498 157.008 306.41 156.713 306.396 156.405C306.381 156.098 306.44 155.785 306.568 155.49C306.697 155.194 306.892 154.923 307.14 154.695C307.387 154.466 307.682 154.287 308.002 154.168L312.986 152.416C313.314 152.309 313.657 152.266 313.993 152.287C314.329 152.309 314.651 152.396 314.938 152.542C315.224 152.688 315.47 152.89 315.658 153.136C315.846 153.381 315.973 153.665 316.031 153.968L319.547 170.787C319.625 171.281 319.507 171.798 319.213 172.247C318.92 172.696 318.47 173.046 317.946 173.236C317.421 173.426 316.855 173.443 316.35 173.283C315.845 173.124 315.433 172.799 315.188 172.366Z" fill="#0047AE"/>
<path d="M296.857 127.974C297.178 128.849 297.861 129.551 298.766 129.936C299.67 130.321 300.729 130.362 301.728 130.049C302.204 129.886 302.646 129.637 303.027 129.317C303.409 128.998 303.72 128.614 303.943 128.19C304.166 127.767 304.295 127.313 304.321 126.857C304.348 126.4 304.273 125.951 304.1 125.538C303.779 124.664 303.1 123.961 302.199 123.571C301.298 123.182 300.242 123.134 299.242 123.437C298.763 123.601 298.318 123.852 297.935 124.173C297.551 124.495 297.238 124.881 297.014 125.307C296.79 125.733 296.661 126.19 296.634 126.649C296.607 127.108 296.683 127.559 296.857 127.974Z" fill="#0047AE"/>
<path d="M298.439 121.323L307.173 109.489L335.648 105.996L298.439 121.323Z" fill="#0047AE"/>
<path d="M298.428 121.32L289.602 133.277L259.672 137.312L298.428 121.32Z" fill="#0047AE"/>
<path d="M120.121 229.572L123.941 228.196C124.77 227.937 125.546 227.527 126.221 226.991C126.895 226.455 127.453 225.805 127.86 225.083C128.267 224.36 128.514 223.58 128.585 222.791C128.657 222.002 128.551 221.222 128.275 220.499L117.453 194.481C116.753 192.999 115.461 191.853 113.825 191.261C112.189 190.669 110.322 190.673 108.582 191.273L104.732 192.575C103.887 192.818 103.093 193.219 102.401 193.751C101.709 194.283 101.135 194.934 100.716 195.663C100.297 196.391 100.042 197.18 99.968 197.979C99.8943 198.777 100.003 199.567 100.288 200.297L111.201 226.533C111.915 228.008 113.225 229.138 114.876 229.7C116.526 230.262 118.397 230.216 120.121 229.572Z" fill="#0047AE"/>
<path d="M124.234 241.618L113.972 225.255C113.79 224.955 113.688 224.614 113.674 224.258C113.661 223.903 113.736 223.543 113.894 223.205C114.052 222.868 114.289 222.562 114.587 222.31C114.884 222.059 115.235 221.868 115.612 221.754L121.702 219.605C122.08 219.463 122.479 219.392 122.875 219.397C123.27 219.401 123.654 219.48 124.002 219.63C124.35 219.779 124.655 219.996 124.898 220.266C125.141 220.536 125.316 220.855 125.414 221.201L129.609 239.767C129.639 240.357 129.452 240.956 129.077 241.468C128.701 241.979 128.16 242.374 127.54 242.587C126.919 242.801 126.256 242.822 125.657 242.646C125.057 242.47 124.556 242.108 124.234 241.618Z" fill="#0047AE"/>
<path d="M102.226 193.189C102.694 194.178 103.558 194.942 104.651 195.335C105.745 195.727 106.991 195.721 108.151 195.316C108.706 195.154 109.227 194.889 109.681 194.539C110.135 194.188 110.513 193.76 110.788 193.281C111.064 192.802 111.232 192.284 111.282 191.759C111.331 191.234 111.262 190.714 111.077 190.234C110.611 189.247 109.751 188.484 108.662 188.09C107.573 187.696 106.331 187.699 105.173 188.098C104.615 188.258 104.091 188.521 103.634 188.871C103.177 189.222 102.797 189.651 102.519 190.131C102.241 190.611 102.071 191.131 102.021 191.658C101.971 192.185 102.041 192.707 102.226 193.189Z" fill="#0047AE"/>
<path d="M104.196 185.789L114.908 172.364L149.506 167.434L104.196 185.789Z" fill="#0047AE"/>
<path d="M104.208 185.788L93.363 199.354L56.7891 204.957L104.208 185.788Z" fill="#0047AE"/>
<path d="M186.301 178.142L239.109 160.041C243.284 158.654 247.018 156.182 249.834 152.941C252.649 149.701 254.419 145.839 254.917 141.847L256.25 130.742C256.424 128.681 256.064 126.651 255.2 124.821C254.336 122.992 252.992 121.415 251.281 120.221C249.569 119.027 247.539 118.251 245.357 117.957C243.176 117.662 240.907 117.858 238.737 118.528L156.125 144.947C153.849 145.62 151.764 146.837 150.091 148.467C148.418 150.097 147.221 152.08 146.627 154.203C146.032 156.327 146.063 158.511 146.715 160.525C147.368 162.539 148.618 164.306 150.332 165.638L159.847 173.683C163.233 176.563 167.469 178.495 172.118 179.278C176.767 180.062 181.663 179.669 186.301 178.142Z" fill="#0047AE"/>
<path opacity="0.2" d="M160.598 155.958L242.89 129.117C243.902 128.781 244.945 128.556 245.995 128.445C247.324 128.345 248.638 128.499 249.855 128.899C251.071 129.298 252.162 129.934 253.059 130.766C253.956 131.599 254.639 132.609 255.065 133.732C255.49 134.856 255.649 136.069 255.531 137.293L255 141.785C254.506 145.797 252.727 149.68 249.893 152.933C247.058 156.186 243.298 158.662 239.097 160.04L186.246 178.094C181.612 179.639 176.716 180.05 172.061 179.283C167.406 178.517 163.16 176.602 159.76 173.734L155.885 170.477C154.828 169.712 154.009 168.709 153.496 167.551C152.983 166.393 152.791 165.115 152.937 163.825C153.083 162.535 153.562 161.27 154.334 160.138C155.106 159.006 156.149 158.04 157.373 157.321C158.395 156.753 159.478 156.295 160.598 155.958Z" fill="black"/>
<path d="M184.561 170.565C187.054 176.493 191.972 181.146 198.33 183.594C204.688 186.041 212.018 186.103 218.852 183.766C222.075 182.696 225.078 181.042 227.674 178.907C230.27 176.773 232.404 174.204 233.943 171.359C235.482 168.515 236.393 165.458 236.619 162.376C236.845 159.295 236.382 156.256 235.258 153.449C230.591 141.423 218.63 143.131 204.661 147.745C190.692 152.359 179.656 158.253 184.561 170.565Z" fill="#0047AE"/>
<path d="M224.556 163.091C225.187 164.521 225.474 166.082 225.399 167.673C225.325 169.265 224.89 170.852 224.124 172.333C223.357 173.814 222.275 175.156 220.947 176.274C219.619 177.392 218.074 178.26 216.412 178.823C212.905 179.969 209.167 179.903 205.925 178.638C202.684 177.373 200.172 174.999 198.877 171.979C198.25 170.55 197.966 168.991 198.044 167.402C198.121 165.813 198.558 164.228 199.326 162.751C200.094 161.273 201.177 159.934 202.504 158.821C203.832 157.707 205.376 156.842 207.036 156.283C210.536 155.134 214.269 155.195 217.507 156.454C220.746 157.712 223.258 160.078 224.556 163.091Z" fill="white"/>
<path d="M214.978 174.471C215.963 174.15 216.881 173.647 217.672 172.994C218.463 172.341 219.109 171.553 219.57 170.682C220.027 169.78 220.285 168.817 220.325 167.852C220.366 166.886 220.188 165.94 219.805 165.073C218.952 163.131 217.327 161.604 215.238 160.781C213.149 159.957 210.74 159.895 208.467 160.606C207.485 160.927 206.571 161.43 205.784 162.081C204.996 162.733 204.353 163.518 203.895 164.387C203.428 165.287 203.164 166.252 203.12 167.22C203.076 168.187 203.253 169.136 203.64 170.004C204.497 171.943 206.122 173.468 208.21 174.29C210.298 175.113 212.705 175.177 214.978 174.471Z" fill="#0047AE"/>
</svg>
