<svg width="505" height="153" viewBox="0 0 505 153" fill="none" xmlns="http://www.w3.org/2000/svg">
<path d="M508.863 110.179C502.46 107.8 495.69 106.558 488.86 106.509C482.376 105.958 480.296 104.673 479.073 103.266C472.846 94.3199 463.756 87.765 453.302 84.684C442.848 81.6029 431.655 82.1798 421.573 86.3194C418.745 77.5473 412.72 70.1604 404.697 65.6265C396.673 61.0927 387.238 59.7438 378.265 61.8477C378.999 41.6586 353.185 19.9399 330.002 15.0456C307.797 10.2736 288.407 12.2925 275.745 26.9143C262.165 0.42374 209.008 -7.10127 180.197 6.96995C163.62 14.9844 149.612 23.3048 142.7 38.4773C138.193 47.8684 136.091 58.2331 136.583 68.6386C125.328 58.7276 102.879 56.0357 87.6473 61.8477C71.4985 67.9657 70.2751 80.2015 69.2964 92.4374C59.7052 89.6874 49.5611 89.4975 39.8737 91.8867C29.6584 94.9457 23.8473 102.899 25.193 109.384C17.1798 108.895 -2.02752 115.502 0.174595 123.945C2.68256 133.489 24.6424 132.51 32.778 132.204C40.4843 131.582 48.1321 130.376 55.6555 128.594C59.4682 130.042 63.5057 130.808 67.5837 130.858C81.5304 130.858 87.4639 124.74 89.6661 119.601C96.4559 133.978 120.74 144.868 137.868 149.273C170.104 157.532 215.737 152.454 235.739 128.35C238.079 132.897 241.351 136.9 245.343 140.096C253.87 147.029 264.255 151.286 275.194 152.332C288.407 153.617 324.13 155.268 333.978 133.978C341.074 147.988 372.76 154.351 396.8 150.925C406.21 149.638 415.381 146.979 424.02 143.033C429.339 140.23 434.505 137.146 439.496 133.794C441.41 132.462 443.649 131.673 445.976 131.511C448.302 131.35 450.629 131.822 452.709 132.877C469.711 138.871 488.251 138.871 505.254 132.877C518.711 127.187 521.525 115.93 508.863 110.179Z" fill="white"/>
</svg>
