<svg width="218" height="163" viewBox="0 0 218 163" fill="none" xmlns="http://www.w3.org/2000/svg">
<path d="M52.2055 21.6517L28.4778 18.7501L60.0839 30.0418L52.2055 21.6517Z" fill="#0047AE"/>
<path d="M93.6447 42.0425L60.096 30.0474L68.1243 38.574L93.6447 42.0425Z" fill="#0047AE"/>
<path d="M166.124 54.3927L137.279 50.4528L175.831 63.9549L166.124 54.3927Z" fill="#0047AE"/>
<path d="M216.995 78.4127L175.817 63.9578L185.662 73.688L216.995 78.4127Z" fill="#0047AE"/>
<path d="M39.6973 63.5748L23.1595 61.511L44.7203 70.4732L39.6973 63.5748Z" fill="#0047AE"/>
<path d="M67.1969 79.782L44.7067 70.4671L49.8354 77.4099L67.1969 79.782Z" fill="#0047AE"/>
<path d="M158.314 112.78C158.374 112.682 158.418 112.577 158.445 112.466C158.56 112.187 158.607 111.883 158.581 111.576C158.556 111.268 158.459 110.964 158.298 110.683C158.137 110.402 157.915 110.151 157.647 109.948C157.379 109.745 157.071 109.593 156.745 109.504C156.073 109.267 155.351 109.259 154.715 109.482C154.079 109.705 153.574 110.143 153.296 110.713C153.296 110.713 153.204 110.933 153.165 111.027C152.359 111 151.581 111.186 150.924 111.564C150.266 111.942 149.756 112.496 149.454 113.159L148.244 116.044L123.043 102.422C123.721 102.032 124.354 101.581 124.933 101.076L127.179 99.178L130.36 96.5293C131.246 95.8351 131.928 94.9471 132.352 93.935C132.776 92.923 132.931 91.8142 132.805 90.6958L159.472 86.3856L158.697 88.2361C158.371 88.9081 158.304 89.6791 158.506 90.4301C158.708 91.1811 159.167 91.8704 159.814 92.3916L157.772 101.417C157.331 103.26 160.432 104.265 161.415 102.612L166.488 94.5614C167.353 94.5086 168.171 94.2501 168.863 93.8107C169.555 93.3712 170.098 92.7654 170.44 92.0513L178.064 73.8607C178.388 73.1288 178.411 72.2931 178.13 71.5005C177.848 70.708 177.279 70.0095 176.523 69.5279C176.597 69.3995 176.654 69.2628 176.694 69.1202C176.826 68.7936 176.876 68.4384 176.841 68.0793C176.806 67.7202 176.686 67.366 176.491 67.0416C176.295 66.7171 176.028 66.4303 175.708 66.2012C175.389 65.9721 175.024 65.8063 174.64 65.7154C173.826 65.4621 172.964 65.4809 172.212 65.7683C171.46 66.0558 170.868 66.5927 170.545 67.2808C170.469 67.4079 170.412 67.5449 170.374 67.6885C169.415 67.6863 168.495 67.9291 167.717 68.3903C166.939 68.8514 166.332 69.5129 165.964 70.3018L161.443 81.0907L129.777 86.2556C128.873 85.4956 127.816 84.914 126.679 84.5517L78.7597 69.0783C77.6921 68.7194 76.5688 68.5895 75.4795 68.6991L57.7228 48.9792L61.5591 38.9355C61.8166 38.2785 61.8385 37.5467 61.6218 36.8415C61.4051 36.1362 60.9605 35.4925 60.3496 34.9995C60.3496 34.9995 60.4417 34.78 60.4942 34.6545C60.6212 34.3731 60.6781 34.0646 60.6612 33.7501C60.6443 33.4355 60.5538 33.1225 60.3961 32.8322C60.2383 32.542 60.017 32.2815 59.7472 32.0686C59.4774 31.8557 59.1656 31.6953 58.8331 31.5986C58.1323 31.4209 57.4062 31.4802 56.791 31.7653C56.1757 32.0504 55.7134 32.5419 55.4907 33.1475C55.4234 33.2538 55.3747 33.3701 55.3461 33.4925C54.5284 33.5562 53.7622 33.8216 53.1263 34.2615C52.4904 34.7014 52.0078 35.2999 51.7282 35.9953L45.4967 52.4464C45.2631 53.0452 45.2246 53.7071 45.3856 54.3553C45.5466 55.0036 45.9005 55.6117 46.4063 56.1092L44.6705 64.3047C44.5568 64.6678 44.6086 65.0698 44.8144 65.4223C45.0202 65.7747 45.3633 66.0488 45.7681 66.1843C46.1729 66.3197 46.6062 66.3053 46.9729 66.1444C47.3395 65.9834 47.6093 65.689 47.723 65.3259L51.9123 57.9005C52.6408 57.806 53.3168 57.5426 53.8788 57.1341C54.4408 56.7257 54.8708 56.1851 55.1299 55.5618L55.7871 53.9936L70.7248 70.6517C69.899 71.3108 69.2628 72.1474 68.8644 73.0983C68.4659 74.0491 68.3155 75.0894 68.4247 76.1403L68.802 79.9856L69.1065 82.6205C69.1619 83.0668 69.2525 83.5115 69.3776 83.9509L69.4708 84.3218L44.5747 80.4512L45.6656 77.8481C45.8999 77.2917 45.93 76.6663 45.7517 76.0616C45.5733 75.4569 45.1957 74.904 44.6729 74.4823L44.8044 74.1687C44.9048 73.9301 44.9496 73.671 44.9358 73.4072C44.922 73.1434 44.8501 72.8805 44.7243 72.6346C44.5986 72.3886 44.4217 72.1648 44.2045 71.9768C43.9873 71.7887 43.7343 71.6404 43.461 71.5409C42.8804 71.3624 42.266 71.388 41.7414 71.6128C41.2168 71.8375 40.8208 72.2446 40.6329 72.7524C40.5738 72.8499 40.5296 72.9554 40.5015 73.066C39.827 73.0968 39.1894 73.2969 38.6568 73.6451C38.1241 73.9933 37.7164 74.4764 37.4769 75.0431L32.2527 88.8929C32.0465 89.4055 32.0075 89.9738 32.1403 90.5319C32.273 91.0901 32.5721 91.6151 33.0028 92.0463L31.6076 98.836C31.5471 99.1201 31.5999 99.4232 31.7567 99.6916C31.9136 99.9599 32.1642 100.176 32.4642 100.302C32.7641 100.428 33.094 100.455 33.3953 100.378C33.6966 100.302 33.9498 100.127 34.1099 99.8847L37.6324 93.6547C38.2512 93.6032 38.8296 93.3974 39.3068 93.0589C39.784 92.7204 40.1425 92.2617 40.3446 91.731L43.029 84.6337L73.5793 89.5464L74.2364 90.1537C74.6949 90.5444 75.1795 90.9076 75.6868 91.2408C76.7405 91.9642 77.8931 92.5466 79.1061 92.9688L80.4806 93.5449C80.496 96.3714 81.5086 99.1936 83.3666 101.588C85.2247 103.982 87.8278 105.819 90.7853 106.823C93.9149 107.889 97.2404 108.101 100.344 107.433C103.447 106.766 106.19 105.248 108.227 103.071L109.672 103.677C111.282 104.239 112.963 104.545 114.639 104.579C115.387 104.627 116.132 104.606 116.862 104.515L146.493 120.62L143.285 128.272C143.058 128.851 143.024 129.492 143.189 130.118C143.354 130.743 143.709 131.326 144.212 131.795L142.489 139.369C142.452 139.707 142.539 140.057 142.737 140.363C142.935 140.669 143.232 140.915 143.582 141.061C143.932 141.208 144.315 141.247 144.672 141.174C145.029 141.1 145.339 140.917 145.555 140.654L149.789 133.911C150.511 133.902 151.2 133.71 151.78 133.355C152.36 132.999 152.809 132.495 153.078 131.897L159.453 116.686C159.755 116.047 159.807 115.315 159.6 114.607C159.394 113.899 158.941 113.256 158.314 112.78Z" fill="#0047AE"/>
<path d="M131.116 97.4758L157.408 108.2L151.19 100.395L131.116 97.4758Z" fill="#0047AE"/>
<path d="M163.632 116.068L184.873 119.365L157.37 108.171L163.632 116.068Z" fill="#0047AE"/>
<g opacity="0.6">
<path d="M52.2055 21.6517L28.4778 18.7501L60.0839 30.0418L52.2055 21.6517Z" fill="white"/>
<path d="M93.6447 42.0425L60.096 30.0474L68.1243 38.574L93.6447 42.0425Z" fill="white"/>
<path d="M166.124 54.3927L137.279 50.4528L175.831 63.9549L166.124 54.3927Z" fill="white"/>
<path d="M216.995 78.4127L175.817 63.9578L185.662 73.688L216.995 78.4127Z" fill="white"/>
<path d="M39.6973 63.5748L23.1595 61.511L44.7203 70.4732L39.6973 63.5748Z" fill="white"/>
<path d="M67.1969 79.782L44.7067 70.4671L49.8354 77.4099L67.1969 79.782Z" fill="white"/>
<path d="M158.314 112.78C158.374 112.682 158.418 112.577 158.445 112.466C158.56 112.187 158.607 111.883 158.581 111.576C158.556 111.268 158.459 110.964 158.298 110.683C158.137 110.402 157.915 110.151 157.647 109.948C157.379 109.745 157.071 109.593 156.745 109.504C156.073 109.267 155.351 109.259 154.715 109.482C154.079 109.705 153.574 110.143 153.296 110.713C153.296 110.713 153.204 110.933 153.165 111.027C152.359 111 151.581 111.186 150.924 111.564C150.266 111.942 149.756 112.496 149.454 113.159L148.244 116.044L123.043 102.422C123.721 102.032 124.354 101.581 124.933 101.076L127.179 99.178L130.36 96.5293C131.246 95.8351 131.928 94.9471 132.352 93.935C132.776 92.923 132.931 91.8142 132.805 90.6958L159.472 86.3856L158.697 88.2361C158.371 88.9081 158.304 89.6791 158.506 90.4301C158.708 91.1811 159.167 91.8704 159.814 92.3916L157.772 101.417C157.331 103.26 160.432 104.265 161.415 102.612L166.488 94.5614C167.353 94.5086 168.171 94.2501 168.863 93.8107C169.555 93.3712 170.098 92.7654 170.44 92.0513L178.064 73.8607C178.388 73.1288 178.411 72.2931 178.13 71.5005C177.848 70.708 177.279 70.0095 176.523 69.5279C176.597 69.3995 176.654 69.2628 176.694 69.1202C176.826 68.7936 176.876 68.4384 176.841 68.0793C176.806 67.7202 176.686 67.366 176.491 67.0416C176.295 66.7171 176.028 66.4303 175.708 66.2012C175.389 65.9721 175.024 65.8063 174.64 65.7154C173.826 65.4621 172.964 65.4809 172.212 65.7683C171.46 66.0558 170.868 66.5927 170.545 67.2808C170.469 67.4079 170.412 67.5449 170.374 67.6885C169.415 67.6863 168.495 67.9291 167.717 68.3903C166.939 68.8514 166.332 69.5129 165.964 70.3018L161.443 81.0907L129.777 86.2556C128.873 85.4956 127.816 84.914 126.679 84.5517L78.7597 69.0783C77.6921 68.7194 76.5688 68.5895 75.4795 68.6991L57.7228 48.9792L61.5591 38.9355C61.8166 38.2785 61.8385 37.5467 61.6218 36.8415C61.4051 36.1362 60.9605 35.4925 60.3496 34.9995C60.3496 34.9995 60.4417 34.78 60.4942 34.6545C60.6212 34.3731 60.6781 34.0646 60.6612 33.7501C60.6443 33.4355 60.5538 33.1225 60.3961 32.8322C60.2383 32.542 60.017 32.2815 59.7472 32.0686C59.4774 31.8557 59.1656 31.6953 58.8331 31.5986C58.1323 31.4209 57.4062 31.4802 56.791 31.7653C56.1757 32.0504 55.7134 32.5419 55.4907 33.1475C55.4234 33.2538 55.3747 33.3701 55.3461 33.4925C54.5284 33.5562 53.7622 33.8216 53.1263 34.2615C52.4904 34.7014 52.0078 35.2999 51.7282 35.9953L45.4967 52.4464C45.2631 53.0452 45.2246 53.7071 45.3856 54.3553C45.5466 55.0036 45.9005 55.6117 46.4063 56.1092L44.6705 64.3047C44.5568 64.6678 44.6086 65.0698 44.8144 65.4223C45.0202 65.7747 45.3633 66.0488 45.7681 66.1843C46.1729 66.3197 46.6062 66.3053 46.9729 66.1444C47.3395 65.9834 47.6093 65.689 47.723 65.3259L51.9123 57.9005C52.6408 57.806 53.3168 57.5426 53.8788 57.1341C54.4408 56.7257 54.8708 56.1851 55.1299 55.5618L55.7871 53.9936L70.7248 70.6517C69.899 71.3108 69.2628 72.1474 68.8644 73.0983C68.4659 74.0491 68.3155 75.0894 68.4247 76.1403L68.802 79.9856L69.1065 82.6205C69.1619 83.0668 69.2525 83.5115 69.3776 83.9509L69.4708 84.3218L44.5747 80.4512L45.6656 77.8481C45.8999 77.2917 45.93 76.6663 45.7517 76.0616C45.5733 75.4569 45.1957 74.904 44.6729 74.4823L44.8044 74.1687C44.9048 73.9301 44.9496 73.671 44.9358 73.4072C44.922 73.1434 44.8501 72.8805 44.7243 72.6346C44.5986 72.3886 44.4217 72.1648 44.2045 71.9768C43.9873 71.7887 43.7343 71.6404 43.461 71.5409C42.8804 71.3624 42.266 71.388 41.7414 71.6128C41.2168 71.8375 40.8208 72.2446 40.6329 72.7524C40.5738 72.8499 40.5296 72.9554 40.5015 73.066C39.827 73.0968 39.1894 73.2969 38.6568 73.6451C38.1241 73.9933 37.7164 74.4764 37.4769 75.0431L32.2527 88.8929C32.0465 89.4055 32.0075 89.9738 32.1403 90.5319C32.273 91.0901 32.5721 91.6151 33.0028 92.0463L31.6076 98.836C31.5471 99.1201 31.5999 99.4232 31.7567 99.6916C31.9136 99.9599 32.1642 100.176 32.4642 100.302C32.7641 100.428 33.094 100.455 33.3953 100.378C33.6966 100.302 33.9498 100.127 34.1099 99.8847L37.6324 93.6547C38.2512 93.6032 38.8296 93.3974 39.3068 93.0589C39.784 92.7204 40.1425 92.2617 40.3446 91.731L43.029 84.6337L73.5793 89.5464L74.2364 90.1537C74.6949 90.5444 75.1795 90.9076 75.6868 91.2408C76.7405 91.9642 77.8931 92.5466 79.1061 92.9688L80.4806 93.5449C80.496 96.3714 81.5086 99.1936 83.3666 101.588C85.2247 103.982 87.8278 105.819 90.7853 106.823C93.9149 107.889 97.2404 108.101 100.344 107.433C103.447 106.766 106.19 105.248 108.227 103.071L109.672 103.677C111.282 104.239 112.963 104.545 114.639 104.579C115.387 104.627 116.132 104.606 116.862 104.515L146.493 120.62L143.285 128.272C143.058 128.851 143.024 129.492 143.189 130.118C143.354 130.743 143.709 131.326 144.212 131.795L142.489 139.369C142.452 139.707 142.539 140.057 142.737 140.363C142.935 140.669 143.232 140.915 143.582 141.061C143.932 141.208 144.315 141.247 144.672 141.174C145.029 141.1 145.339 140.917 145.555 140.654L149.789 133.911C150.511 133.902 151.2 133.71 151.78 133.355C152.36 132.999 152.809 132.495 153.078 131.897L159.453 116.686C159.755 116.047 159.807 115.315 159.6 114.607C159.394 113.899 158.941 113.256 158.314 112.78Z" fill="white"/>
<path d="M131.116 97.4758L157.408 108.2L151.19 100.395L131.116 97.4758Z" fill="white"/>
<path d="M163.632 116.068L184.873 119.365L157.37 108.171L163.632 116.068Z" fill="white"/>
</g>
</svg>
