<svg width="370" height="245" viewBox="0 0 370 245" fill="none" xmlns="http://www.w3.org/2000/svg">
<path d="M205.205 150.736C206.014 150.582 206.77 150.224 207.383 149.703L290.13 79.23C290.932 78.4876 291.395 77.5051 291.417 76.4971C291.439 75.489 291.019 74.5373 290.248 73.8497C289.905 73.4778 289.479 73.1754 288.996 72.96C288.513 72.7446 287.982 72.6205 287.433 72.5948C286.885 72.5691 286.33 72.6423 285.8 72.8102C285.27 72.9781 284.776 73.2374 284.347 73.5731L201.029 144.057C200.599 144.432 200.253 144.878 200.012 145.368C199.771 145.858 199.641 146.381 199.629 146.906C199.617 147.431 199.724 147.947 199.943 148.421C200.162 148.895 200.489 149.318 200.903 149.664C201.448 150.152 202.125 150.505 202.875 150.692C203.625 150.879 204.425 150.894 205.205 150.736Z" fill="#0047AE"/>
<path d="M302.711 142.811C303.64 142.614 304.478 142.125 305.072 141.433C305.666 140.741 305.977 139.893 305.946 139.045C305.929 138.042 305.491 137.104 304.72 136.42C303.95 135.737 302.904 135.358 301.793 135.36L202.732 137.242C202.155 137.241 201.576 137.347 201.033 137.555C200.489 137.763 199.993 138.067 199.574 138.45C199.155 138.832 198.823 139.284 198.599 139.777C198.375 140.271 198.264 140.794 198.272 141.316C198.33 142.401 198.842 143.403 199.707 144.118C200.571 144.833 201.722 145.21 202.93 145.172L301.91 142.903L302.711 142.811Z" fill="#0047AE"/>
<path d="M205.188 150.732C205.925 150.593 206.619 150.281 207.199 149.827C207.779 149.374 208.224 148.797 208.489 148.154C208.866 147.12 208.79 146.017 208.278 145.079C207.765 144.141 206.856 143.443 205.744 143.132L85.8023 106.472C85.2288 106.233 84.599 106.108 83.9536 106.106C83.3082 106.105 82.6617 106.225 82.0557 106.461C81.4498 106.696 80.8979 107.042 80.4359 107.474C79.9738 107.907 79.6118 108.417 79.3732 108.972C79.1347 109.527 79.025 110.114 79.0511 110.696C79.0772 111.278 79.2387 111.841 79.5249 112.349C79.8112 112.857 80.216 113.299 80.7131 113.646C81.2101 113.993 81.7885 114.237 82.4106 114.363L202.746 150.611C203.522 150.844 204.364 150.886 205.188 150.732Z" fill="#0047AE"/>
<path d="M103.459 183.365C103.772 183.312 104.081 183.229 104.379 183.119L204.637 144.863C205.178 144.66 205.674 144.36 206.091 143.982C206.509 143.603 206.84 143.155 207.062 142.665C207.285 142.175 207.395 141.654 207.385 141.136C207.375 140.618 207.245 140.114 207.004 139.656C206.515 138.687 205.633 137.94 204.53 137.559C203.427 137.179 202.182 137.194 201.039 137.6L100.406 175.568C99.8214 175.774 99.2843 176.087 98.8292 176.486C98.3741 176.885 98.0112 177.36 97.7641 177.883C97.517 178.405 97.3911 178.962 97.3945 179.518C97.398 180.074 97.5307 180.616 97.7842 181.109C98.3041 181.998 99.1353 182.697 100.156 183.103C101.177 183.509 102.334 183.601 103.459 183.365Z" fill="#0047AE"/>
<path d="M289.634 95.0407L293.488 94.3551C294.358 94.193 295.191 93.8701 295.935 93.4071C296.679 92.9441 297.316 92.3511 297.807 91.6662C298.297 90.9813 298.629 90.2196 298.783 89.4298C298.936 88.6401 298.906 87.8397 298.696 87.08L291.879 57.529C291.51 55.8928 290.484 54.4697 288.994 53.527C287.504 52.5843 285.652 52.187 283.785 52.4096L279.884 53.0057C279.003 53.1494 278.154 53.4592 277.395 53.9147C276.635 54.3702 275.982 54.9609 275.478 55.6478C274.975 56.3347 274.632 57.1021 274.474 57.8992C274.315 58.6962 274.344 59.5048 274.559 60.2713L281.576 90.0546C281.949 91.6719 282.977 93.0737 284.462 93.9931C285.948 94.9125 287.789 95.2854 289.634 95.0407Z" fill="#0047AE"/>
<path d="M291.947 108.595L284.269 89.3592C284.116 89.0311 284.051 88.6714 284.077 88.3075C284.104 87.9436 284.222 87.5852 284.423 87.2596C284.623 86.9341 284.901 86.65 285.234 86.4291C285.568 86.2082 285.949 86.0563 286.347 85.9851L292.489 84.9316C292.899 84.8736 293.314 84.8902 293.708 84.9805C294.101 85.0707 294.466 85.2327 294.781 85.4568C295.096 85.681 295.354 85.9627 295.539 86.2853C295.725 86.6078 295.835 86.9647 295.863 87.3347L297.367 107.591C297.405 108.208 297.185 108.828 296.751 109.331C296.317 109.833 295.699 110.182 295.02 110.308C294.341 110.433 293.649 110.327 293.081 110.01C292.512 109.693 292.107 109.188 291.947 108.595Z" fill="#0047AE"/>
<path d="M277.299 53.1834C277.557 54.2835 278.259 55.2358 279.272 55.86C280.285 56.4841 281.539 56.7366 282.794 56.5696C283.375 56.4782 283.935 56.2765 284.435 55.9778C284.936 55.6792 285.366 55.2907 285.697 54.8384C286.028 54.3861 286.252 53.8805 286.354 53.3557C286.455 52.8308 286.433 52.2989 286.287 51.7958C286.049 50.702 285.368 49.7494 284.375 49.1196C283.381 48.4898 282.143 48.2268 280.898 48.3809C280.307 48.4627 279.735 48.6583 279.221 48.9545C278.707 49.2507 278.264 49.6403 277.922 50.0966C277.58 50.5529 277.348 51.0651 277.24 51.5979C277.132 52.1308 277.152 52.6716 277.299 53.1834Z" fill="#0047AE"/>
<path d="M280.199 45.7777L295.632 33.252L336.759 33.8275L280.199 45.7777Z" fill="#0047AE"/>
<path d="M280.213 45.7754L264.549 58.4651L220.172 58.4336L280.213 45.7754Z" fill="#0047AE"/>
<path d="M86.6875 131.037L91.3967 130.204C92.4056 130.067 93.3831 129.739 94.2642 129.241C95.1453 128.743 95.9097 128.087 96.5065 127.317C97.1033 126.547 97.5188 125.68 97.7252 124.774C97.9316 123.868 97.9242 122.944 97.7036 122.063L89.1343 89.6537C88.5304 87.7813 87.1986 86.2018 85.3752 85.1955C83.5517 84.1893 81.3544 83.8213 79.1732 84.1569L74.4171 84.9005C73.3936 85.0083 72.3954 85.3157 71.4924 85.8015C70.5893 86.2872 69.8032 86.9394 69.1889 87.7125C68.5745 88.4857 68.1469 89.3611 67.9357 90.2776C67.7246 91.1941 67.7351 92.1296 67.9664 93.0188L76.7499 125.799C77.37 127.64 78.7132 129.181 80.5362 130.141C82.3592 131.102 84.5414 131.42 86.6875 131.037Z" fill="#0047AE"/>
<path d="M89.6521 145.887L80.0767 124.792C79.9044 124.415 79.8355 124.001 79.8758 123.584C79.9161 123.168 80.0643 122.76 80.3084 122.394C80.5525 122.028 80.8856 121.714 81.2805 121.479C81.6755 121.243 82.121 121.092 82.581 121.038L90.08 119.743C91.0423 119.568 92.02 119.742 92.7989 120.225C93.5778 120.709 94.0945 121.464 94.2358 122.325L96.2592 144.688C96.5509 147.917 91.0446 148.943 89.6521 145.887Z" fill="#0047AE"/>
<path d="M71.2539 85.0655C71.6559 86.3174 72.5482 87.3722 73.7701 88.0403C74.992 88.7083 76.4634 88.9457 77.9197 88.7097C78.5931 88.6395 79.2499 88.4376 79.844 88.1182C80.4381 87.7987 80.9552 87.3694 81.3588 86.8605C81.7625 86.3516 82.0429 85.7753 82.1805 85.1722C82.3181 84.5691 82.3095 83.9537 82.1553 83.3693C81.7549 82.1178 80.8664 81.0618 79.6484 80.3897C78.4305 79.7177 76.9622 79.4734 75.5057 79.7003C74.8281 79.768 74.1666 79.969 73.5682 80.2893C72.9698 80.6095 72.4491 81.041 72.0432 81.5532C71.6373 82.0653 71.3562 82.6455 71.2198 83.2525C71.0834 83.8595 71.095 84.4785 71.2539 85.0655Z" fill="#0047AE"/>
<path d="M74.7844 76.811L93.5427 62.7409L143.692 62.6547L74.7844 76.811Z" fill="#0047AE"/>
<path d="M74.7522 76.803L55.6494 91.1286L1.10156 91.9238L74.7522 76.803Z" fill="#0047AE"/>
<path d="M304.941 159.752L308.176 159.069C308.915 158.901 309.617 158.603 310.241 158.191C310.865 157.78 311.399 157.264 311.81 156.674C312.221 156.083 312.502 155.431 312.635 154.756C312.767 154.081 312.75 153.397 312.584 152.744L306.846 127.905C306.541 126.537 305.667 125.355 304.4 124.596C303.133 123.838 301.566 123.558 300.015 123.815L296.743 124.447C295.996 124.603 295.283 124.893 294.648 125.3C294.013 125.707 293.469 126.222 293.05 126.815C292.631 127.407 292.345 128.063 292.21 128.743C292.075 129.423 292.094 130.113 292.266 130.771L298.087 155.75C298.389 157.117 299.269 158.296 300.545 159.041C301.822 159.787 303.396 160.041 304.941 159.752Z" fill="#0047AE"/>
<path d="M306.874 171.115L300.407 155.026C300.288 154.745 300.239 154.441 300.266 154.134C300.292 153.827 300.391 153.525 300.558 153.249C300.724 152.973 300.953 152.73 301.229 152.536C301.505 152.342 301.82 152.203 302.154 152.128L307.325 151.049C307.664 150.987 308.01 150.989 308.34 151.054C308.671 151.12 308.978 151.249 309.243 151.431C309.508 151.614 309.724 151.847 309.879 152.115C310.033 152.384 310.121 152.681 310.139 152.99L311.404 170.126C311.416 170.625 311.23 171.122 310.88 171.529C310.53 171.935 310.038 172.223 309.493 172.342C308.948 172.461 308.385 172.403 307.905 172.178C307.425 171.953 307.06 171.576 306.874 171.115Z" fill="#0047AE"/>
<path d="M294.571 124.691C294.774 125.601 295.358 126.386 296.204 126.887C297.05 127.389 298.094 127.569 299.125 127.39C299.619 127.292 300.09 127.103 300.51 126.837C300.93 126.57 301.29 126.231 301.567 125.84C301.843 125.45 302.031 125.017 302.118 124.568C302.205 124.119 302.189 123.665 302.072 123.232C301.87 122.323 301.29 121.537 300.448 121.032C299.606 120.526 298.565 120.339 297.534 120.508C297.038 120.607 296.563 120.797 296.141 121.065C295.719 121.334 295.357 121.675 295.079 122.068C294.801 122.46 294.612 122.896 294.525 123.347C294.437 123.799 294.453 124.256 294.571 124.691Z" fill="#0047AE"/>
<path d="M297.015 118.306L307.234 107.729L335.921 108.024L297.015 118.306Z" fill="#0047AE"/>
<path d="M296.997 118.3L286.669 128.988L256.469 129.037L296.997 118.3Z" fill="#0047AE"/>
<path d="M105.968 202.069L109.936 201.21C110.793 201.062 111.616 200.758 112.355 200.316C113.094 199.874 113.734 199.304 114.232 198.641C114.731 197.978 115.079 197.238 115.254 196.465C115.429 195.693 115.427 194.905 115.249 194.152L107.956 166.933C107.457 165.372 106.328 164.065 104.785 163.262C103.241 162.46 101.39 162.217 99.5862 162.582L95.5976 163.365C94.7284 163.494 93.8883 163.787 93.1323 164.223C92.3762 164.659 91.721 165.228 91.2093 165.895C90.6976 166.562 90.3409 167.31 90.1623 168.092C89.9838 168.874 89.9875 169.671 90.1731 170.432L97.5276 197.88C98.0403 199.436 99.1905 200.729 100.752 201.504C102.314 202.279 104.174 202.48 105.968 202.069Z" fill="#0047AE"/>
<path d="M108.447 214.553L100.435 196.979C100.293 196.657 100.237 196.306 100.271 195.952C100.304 195.598 100.426 195.251 100.627 194.937C100.829 194.623 101.104 194.351 101.432 194.141C101.761 193.931 102.133 193.789 102.522 193.725L108.843 192.399C109.236 192.308 109.641 192.291 110.032 192.347C110.424 192.403 110.794 192.533 111.119 192.727C111.444 192.921 111.718 193.176 111.923 193.476C112.128 193.776 112.26 194.114 112.311 194.47L114.018 213.428C113.971 214.017 113.706 214.586 113.267 215.044C112.827 215.501 112.239 215.821 111.595 215.951C110.952 216.08 110.292 216.013 109.721 215.76C109.15 215.506 108.701 215.081 108.447 214.553Z" fill="#0047AE"/>
<path d="M93.0333 163.643C93.3663 164.685 94.1214 165.557 95.1536 166.09C96.1857 166.624 97.4222 166.782 98.6255 166.534C99.1967 166.447 99.7483 166.253 100.245 165.965C100.741 165.678 101.172 165.303 101.508 164.865C101.844 164.427 102.08 163.935 102.198 163.421C102.317 162.907 102.316 162.383 102.197 161.882C101.865 160.843 101.114 159.973 100.086 159.439C99.0584 158.904 97.8266 158.743 96.6258 158.985C96.0522 159.07 95.4977 159.262 94.9983 159.549C94.4989 159.836 94.0658 160.211 93.727 160.651C93.3883 161.09 93.1514 161.583 93.0319 162.099C92.9124 162.614 92.9129 163.14 93.0333 163.643Z" fill="#0047AE"/>
<path d="M95.9639 156.568L108.354 144.674L143.3 144.354L95.9639 156.568Z" fill="#0047AE"/>
<path d="M95.9641 156.569L83.4231 168.585L46.4297 169.311L95.9641 156.569Z" fill="#0047AE"/>
<path d="M178.358 159.824L233.093 148.853C237.415 148.029 241.442 146.072 244.661 143.231C247.879 140.391 250.143 136.796 251.164 132.905L253.951 122.073C254.396 120.053 254.307 117.993 253.692 116.066C253.077 114.138 251.953 112.397 250.414 110.988C248.875 109.579 246.965 108.541 244.842 107.962C242.718 107.382 240.443 107.277 238.204 107.654L152.828 122.936C150.483 123.304 148.255 124.235 146.381 125.63C144.508 127.025 143.06 128.832 142.19 130.858C141.32 132.884 141.062 135.054 141.443 137.136C141.824 139.219 142.83 141.135 144.354 142.682L152.723 151.913C155.7 155.215 159.643 157.688 164.148 159.079C168.654 160.469 173.558 160.726 178.358 159.824Z" fill="#0047AE"/>
<path opacity="0.2" d="M155.799 134.445L240.914 118.702C241.962 118.502 243.025 118.416 244.08 118.445C245.411 118.521 246.694 118.847 247.846 119.404C248.999 119.961 249.997 120.735 250.776 121.679C251.556 122.622 252.099 123.713 252.373 124.883C252.646 126.053 252.644 127.276 252.365 128.474L251.245 132.857C250.226 136.768 247.95 140.382 244.711 143.233C241.472 146.084 237.418 148.041 233.072 148.853L178.3 159.773C173.503 160.692 168.596 160.453 164.083 159.079C159.57 157.705 155.614 155.246 152.622 151.954L149.211 148.214C148.264 147.317 147.584 146.214 147.229 144.999C146.873 143.783 146.852 142.491 147.167 141.231C147.482 139.971 148.124 138.781 149.038 137.761C149.953 136.741 151.114 135.921 152.422 135.37C153.51 134.941 154.644 134.631 155.799 134.445Z" fill="black"/>
<path d="M177.631 152.087C179.32 158.292 183.58 163.554 189.56 166.819C195.539 170.085 202.796 171.113 209.879 169.699C213.215 169.063 216.41 167.82 219.265 166.047C222.12 164.274 224.575 162.009 226.476 159.393C228.377 156.777 229.683 153.866 230.314 150.842C230.945 147.817 230.887 144.744 230.143 141.813C227.105 129.276 215.023 129.39 200.567 132.12C186.112 134.85 174.394 139.235 177.631 152.087Z" fill="#0047AE"/>
<path d="M218.266 149.956C218.702 151.457 218.78 153.042 218.496 154.61C218.212 156.178 217.572 157.693 216.617 159.06C215.661 160.427 214.411 161.615 212.948 162.548C211.484 163.48 209.838 164.137 208.116 164.476C204.488 165.149 200.791 164.59 197.745 162.908C194.699 161.226 192.522 158.541 191.638 155.376C191.205 153.877 191.129 152.295 191.416 150.73C191.702 149.165 192.344 147.652 193.301 146.289C194.257 144.925 195.507 143.741 196.97 142.812C198.434 141.884 200.078 141.231 201.798 140.895C205.419 140.219 209.111 140.772 212.154 142.447C215.198 144.121 217.377 146.798 218.266 149.956Z" fill="white"/>
<path d="M207.267 159.973C208.286 159.784 209.262 159.407 210.133 158.864C211.003 158.321 211.748 157.626 212.319 156.822C212.892 155.99 213.274 155.068 213.441 154.117C213.609 153.166 213.558 152.205 213.293 151.295C212.703 149.256 211.294 147.528 209.332 146.436C207.37 145.345 204.99 144.965 202.643 145.37C201.628 145.559 200.656 145.936 199.789 146.478C198.923 147.019 198.181 147.713 197.613 148.514C197.031 149.345 196.642 150.266 196.47 151.22C196.299 152.173 196.349 153.136 196.618 154.048C197.212 156.083 198.621 157.809 200.583 158.9C202.544 159.991 204.921 160.373 207.267 159.973Z" fill="#0047AE"/>
</svg>
