<svg width="219" height="172" viewBox="0 0 219 172" fill="none" xmlns="http://www.w3.org/2000/svg">
<path d="M55.9991 22.5629L32.4873 18.2475L63.3616 31.4091L55.9991 22.5629Z" fill="#0047AE"/>
<path d="M96.1503 45.3963L63.379 31.4162L70.883 40.4077L96.1503 45.3963Z" fill="#0047AE"/>
<path d="M167.759 62.0593L139.201 56.4014L176.877 72.185L167.759 62.0593Z" fill="#0047AE"/>
<path d="M217.1 89.0785L176.86 72.1868L186.105 82.4883L217.1 89.0785Z" fill="#0047AE"/>
<path d="M41.0146 63.6638L24.6299 60.6147L45.616 70.8503L41.0146 63.6638Z" fill="#0047AE"/>
<path d="M67.4886 81.4887L45.5956 70.8455L50.3 78.0825L67.4886 81.4887Z" fill="#0047AE"/>
<path d="M156.477 119.875C156.543 119.782 156.593 119.679 156.627 119.57C156.758 119.298 156.823 118.998 156.816 118.69C156.809 118.381 156.731 118.071 156.586 117.781C156.442 117.491 156.236 117.228 155.98 117.009C155.725 116.79 155.427 116.62 155.107 116.512C154.45 116.235 153.73 116.184 153.082 116.369C152.434 116.553 151.903 116.96 151.592 117.513C151.592 117.513 151.487 117.726 151.442 117.818C150.639 117.743 149.852 117.882 149.173 118.22C148.493 118.558 147.951 119.08 147.61 119.724L146.23 122.532L121.889 107.427C122.589 107.078 123.248 106.666 123.856 106.196L126.211 104.436L129.546 101.982C130.471 101.342 131.205 100.497 131.689 99.5118C132.173 98.5269 132.394 97.4294 132.335 96.3054L159.212 93.5978L158.327 95.3986C157.962 96.0499 157.848 96.8155 158.005 97.5772C158.162 98.339 158.58 99.0546 159.194 99.6135L156.616 108.501C156.065 110.314 159.101 111.503 160.181 109.911L165.726 102.179C166.593 102.178 167.425 101.969 168.142 101.571C168.859 101.174 169.437 100.602 169.821 99.9093L178.519 82.2072C178.887 81.496 178.96 80.6632 178.726 79.8552C178.492 79.0472 177.966 78.3159 177.24 77.7901C177.322 77.6663 177.387 77.5332 177.435 77.3933C177.587 77.0752 177.658 76.7235 177.644 76.363C177.631 76.0025 177.533 75.6418 177.357 75.3062C177.181 74.9707 176.931 74.6684 176.626 74.4206C176.321 74.1728 175.967 73.9855 175.589 73.8718C174.791 73.5702 173.929 73.5374 173.162 73.7793C172.394 74.0213 171.771 74.5219 171.408 75.1894C171.324 75.3118 171.258 75.4451 171.213 75.5862C170.255 75.5266 169.322 75.714 168.518 76.1278C167.714 76.5415 167.069 77.1655 166.654 77.931L161.496 88.4303L129.577 91.6921C128.721 90.8794 127.7 90.2356 126.587 89.806L79.6788 71.4944C78.6347 71.0723 77.5211 70.8755 76.4272 70.9197L59.8817 50.1731L64.3118 40.3768C64.6081 39.7364 64.6737 39.0072 64.4996 38.2903C64.3254 37.5734 63.9201 36.9042 63.3399 36.3756C63.3399 36.3756 63.4448 36.162 63.5048 36.0399C63.6484 35.7666 63.7237 35.462 63.7256 35.147C63.7275 34.832 63.6559 34.5141 63.5158 34.215C63.3757 33.9158 63.1703 33.6426 62.9138 33.4139C62.6572 33.1852 62.3556 33.0065 62.0294 32.89C61.3405 32.6708 60.6122 32.6865 59.981 32.9343C59.3498 33.1822 58.8589 33.6451 58.6003 34.2363C58.5269 34.3384 58.4713 34.4515 58.4354 34.5721C57.6154 34.5867 56.8347 34.8058 56.1736 35.2069C55.5126 35.608 54.995 36.1765 54.6743 36.854L47.4701 52.903C47.2011 53.4867 47.1231 54.1451 47.245 54.8018C47.367 55.4586 47.6838 56.0867 48.159 56.6136L45.9361 64.6906C45.8009 65.0463 45.8286 65.4506 46.013 65.8148C46.1974 66.1789 46.5234 66.4731 46.9194 66.6324C47.3153 66.7918 47.7488 66.8034 48.1244 66.6647C48.5 66.5259 48.7869 66.2482 48.9222 65.8926L53.548 58.731C54.2808 58.6803 54.9714 58.4577 55.5568 58.0836C56.1422 57.7095 56.6038 57.1956 56.8997 56.5889L57.6495 55.0628L71.5643 72.5845C70.7005 73.193 70.0155 73.9901 69.5608 74.9154C69.1062 75.8407 68.8939 76.8701 68.94 77.9257L69.0866 81.7866L69.233 84.435C69.2616 84.8838 69.3255 85.3331 69.4241 85.7793L69.495 86.1551L44.8748 80.8025L46.1195 78.2693C46.3866 77.7279 46.4541 77.1054 46.3123 76.4911C46.1704 75.8768 45.8265 75.3024 45.3299 74.8502L45.4799 74.545C45.5944 74.3128 45.6546 74.0568 45.6566 73.7927C45.6587 73.5286 45.6025 73.2618 45.4917 73.0088C45.3809 72.7558 45.2178 72.5218 45.0122 72.3211C44.8066 72.1204 44.5629 71.9572 44.2961 71.8415C43.7272 71.6286 43.1124 71.6175 42.5753 71.8104C42.0381 72.0034 41.6185 72.3861 41.4006 72.8817C41.3357 72.9755 41.2853 73.0782 41.2507 73.1869C40.5755 73.1773 39.9271 73.3389 39.3746 73.6546C38.8221 73.9703 38.3861 74.4282 38.1132 74.9796L32.07 88.4921C31.8335 88.9915 31.7607 89.5565 31.8598 90.1215C31.959 90.6866 32.2261 91.2286 32.6302 91.6848L30.8314 98.3788C30.7541 98.6588 30.7887 98.9646 30.9292 99.2418C31.0697 99.5191 31.3069 99.7499 31.5988 99.8934C31.8907 100.037 32.2184 100.084 32.5238 100.025C32.8291 99.9671 33.0923 99.8076 33.2666 99.5753L37.1554 93.5672C37.7761 93.5527 38.3658 93.3819 38.8624 93.0725C39.359 92.7632 39.7443 92.3268 39.9778 91.8091L43.0818 84.885L73.2836 91.6161L73.9032 92.2615C74.3375 92.6789 74.7995 93.0705 75.286 93.4335C76.2946 94.2186 77.4102 94.8689 78.5958 95.3629L79.9335 96.0201C79.7797 98.8425 80.6218 101.72 82.3333 104.221C84.0448 106.722 86.5334 108.712 89.4256 109.891C92.4858 111.142 95.7926 111.553 98.9304 111.072C102.068 110.591 104.897 109.24 107.061 107.189L108.467 107.88C110.04 108.538 111.7 108.943 113.371 109.077C114.115 109.17 114.859 109.193 115.594 109.146L144.208 126.995L140.549 134.442C140.287 135.005 140.215 135.643 140.342 136.278C140.469 136.912 140.789 137.515 141.264 138.013L139.09 145.47C139.033 145.806 139.099 146.16 139.279 146.478C139.458 146.795 139.739 147.058 140.08 147.225C140.42 147.393 140.801 147.455 141.161 147.403C141.522 147.351 141.843 147.187 142.074 146.936L146.704 140.459C147.425 140.494 148.124 140.343 148.724 140.023C149.325 139.703 149.803 139.226 150.107 138.645L157.38 123.843C157.72 123.223 157.816 122.496 157.652 121.777C157.488 121.058 157.075 120.388 156.477 119.875Z" fill="#0047AE"/>
<path d="M130.242 102.971L155.846 115.248L150.106 107.086L130.242 102.971Z" fill="#0047AE"/>
<path d="M161.589 123.475L182.595 128.037L155.81 115.218L161.589 123.475Z" fill="#0047AE"/>
<g opacity="0.6">
<path d="M55.9991 22.5629L32.4873 18.2475L63.3616 31.4091L55.9991 22.5629Z" fill="white"/>
<path d="M96.1425 45.3963L63.3711 31.4162L70.8751 40.4077L96.1425 45.3963Z" fill="white"/>
<path d="M167.759 62.0593L139.201 56.4014L176.877 72.185L167.759 62.0593Z" fill="white"/>
<path d="M217.1 89.0785L176.86 72.1868L186.105 82.4883L217.1 89.0785Z" fill="white"/>
<path d="M41.0068 63.6638L24.6221 60.6147L45.6082 70.8503L41.0068 63.6638Z" fill="white"/>
<path d="M67.4886 81.4867L45.5956 70.8435L50.3 78.0805L67.4886 81.4867Z" fill="white"/>
<path d="M156.477 119.875C156.543 119.782 156.593 119.679 156.627 119.57C156.758 119.298 156.823 118.998 156.816 118.69C156.809 118.381 156.731 118.071 156.586 117.781C156.442 117.491 156.236 117.228 155.98 117.009C155.725 116.79 155.427 116.62 155.107 116.512C154.45 116.235 153.73 116.184 153.082 116.369C152.434 116.553 151.903 116.96 151.592 117.513C151.592 117.513 151.487 117.726 151.442 117.818C150.639 117.743 149.852 117.882 149.173 118.22C148.493 118.558 147.951 119.08 147.61 119.724L146.23 122.532L121.889 107.427C122.589 107.078 123.248 106.666 123.856 106.196L126.211 104.436L129.546 101.982C130.471 101.342 131.205 100.497 131.689 99.5118C132.173 98.5269 132.394 97.4294 132.335 96.3054L159.212 93.5978L158.327 95.3986C157.962 96.0499 157.848 96.8155 158.005 97.5772C158.162 98.339 158.58 99.0546 159.194 99.6135L156.616 108.501C156.065 110.314 159.101 111.503 160.181 109.911L165.726 102.179C166.593 102.178 167.425 101.969 168.142 101.571C168.859 101.174 169.437 100.602 169.821 99.9093L178.519 82.2072C178.887 81.496 178.96 80.6632 178.726 79.8552C178.492 79.0472 177.966 78.3159 177.24 77.7901C177.322 77.6663 177.387 77.5332 177.435 77.3933C177.587 77.0752 177.658 76.7235 177.644 76.363C177.631 76.0025 177.533 75.6418 177.357 75.3062C177.181 74.9707 176.931 74.6684 176.626 74.4206C176.321 74.1728 175.967 73.9855 175.589 73.8718C174.791 73.5702 173.929 73.5374 173.162 73.7793C172.394 74.0213 171.771 74.5219 171.408 75.1894C171.324 75.3118 171.258 75.4451 171.213 75.5862C170.255 75.5266 169.322 75.714 168.518 76.1278C167.714 76.5415 167.069 77.1655 166.654 77.931L161.496 88.4303L129.577 91.6921C128.721 90.8794 127.7 90.2356 126.587 89.806L79.6788 71.4944C78.6347 71.0723 77.5211 70.8755 76.4272 70.9197L59.8817 50.1731L64.3118 40.3768C64.6081 39.7364 64.6737 39.0072 64.4996 38.2903C64.3254 37.5734 63.9201 36.9042 63.3399 36.3756C63.3399 36.3756 63.4448 36.162 63.5048 36.0399C63.6484 35.7666 63.7237 35.462 63.7256 35.147C63.7275 34.832 63.6559 34.5141 63.5158 34.215C63.3757 33.9158 63.1703 33.6426 62.9138 33.4139C62.6572 33.1852 62.3556 33.0065 62.0294 32.89C61.3405 32.6708 60.6122 32.6865 59.981 32.9343C59.3498 33.1822 58.8589 33.6451 58.6003 34.2363C58.5269 34.3384 58.4713 34.4515 58.4354 34.5721C57.6154 34.5867 56.8347 34.8058 56.1736 35.2069C55.5126 35.608 54.995 36.1765 54.6743 36.854L47.4701 52.903C47.2011 53.4867 47.1231 54.1451 47.245 54.8018C47.367 55.4586 47.6838 56.0867 48.159 56.6136L45.9361 64.6906C45.8009 65.0463 45.8286 65.4506 46.013 65.8148C46.1974 66.1789 46.5234 66.4731 46.9194 66.6324C47.3153 66.7918 47.7488 66.8034 48.1244 66.6647C48.5 66.5259 48.7869 66.2482 48.9222 65.8926L53.548 58.731C54.2808 58.6803 54.9714 58.4577 55.5568 58.0836C56.1422 57.7095 56.6038 57.1956 56.8997 56.5889L57.6495 55.0628L71.5643 72.5845C70.7005 73.193 70.0155 73.9901 69.5608 74.9154C69.1062 75.8407 68.8939 76.8701 68.94 77.9257L69.0866 81.7866L69.233 84.435C69.2616 84.8838 69.3255 85.3331 69.4241 85.7793L69.495 86.1551L44.8748 80.8025L46.1195 78.2693C46.3866 77.7279 46.4541 77.1054 46.3123 76.4911C46.1704 75.8768 45.8265 75.3024 45.3299 74.8502L45.4799 74.545C45.5944 74.3128 45.6546 74.0568 45.6566 73.7927C45.6587 73.5286 45.6025 73.2618 45.4917 73.0088C45.3809 72.7558 45.2178 72.5218 45.0122 72.3211C44.8066 72.1204 44.5629 71.9572 44.2961 71.8415C43.7272 71.6286 43.1124 71.6175 42.5753 71.8104C42.0381 72.0034 41.6185 72.3861 41.4006 72.8817C41.3357 72.9755 41.2853 73.0782 41.2507 73.1869C40.5755 73.1773 39.9271 73.3389 39.3746 73.6546C38.8221 73.9703 38.3861 74.4282 38.1132 74.9796L32.07 88.4921C31.8335 88.9915 31.7607 89.5565 31.8598 90.1215C31.959 90.6866 32.2261 91.2286 32.6302 91.6848L30.8314 98.3788C30.7541 98.6588 30.7887 98.9646 30.9292 99.2418C31.0697 99.5191 31.3069 99.7499 31.5988 99.8934C31.8907 100.037 32.2184 100.084 32.5238 100.025C32.8291 99.9671 33.0923 99.8076 33.2666 99.5753L37.1554 93.5672C37.7761 93.5527 38.3658 93.3819 38.8624 93.0725C39.359 92.7632 39.7443 92.3268 39.9778 91.8091L43.0818 84.885L73.2836 91.6161L73.9032 92.2615C74.3375 92.6789 74.7995 93.0705 75.286 93.4335C76.2946 94.2186 77.4102 94.8689 78.5958 95.3629L79.9335 96.0201C79.7797 98.8425 80.6218 101.72 82.3333 104.221C84.0448 106.722 86.5334 108.712 89.4256 109.891C92.4858 111.142 95.7926 111.553 98.9304 111.072C102.068 110.591 104.897 109.24 107.061 107.189L108.467 107.88C110.04 108.538 111.7 108.943 113.371 109.077C114.115 109.17 114.859 109.193 115.594 109.146L144.208 126.995L140.549 134.442C140.287 135.005 140.215 135.643 140.342 136.278C140.469 136.912 140.789 137.515 141.264 138.013L139.09 145.47C139.033 145.806 139.099 146.16 139.279 146.478C139.458 146.795 139.739 147.058 140.08 147.225C140.42 147.393 140.801 147.455 141.161 147.403C141.522 147.351 141.843 147.187 142.074 146.936L146.704 140.459C147.425 140.494 148.124 140.343 148.724 140.023C149.325 139.703 149.803 139.226 150.107 138.645L157.38 123.843C157.72 123.223 157.816 122.496 157.652 121.777C157.488 121.058 157.075 120.388 156.477 119.875Z" fill="white"/>
<path d="M130.242 102.971L155.846 115.248L150.106 107.086L130.242 102.971Z" fill="white"/>
<path d="M161.589 123.475L182.595 128.037L155.81 115.218L161.589 123.475Z" fill="white"/>
</g>
</svg>
