<svg width="218" height="158" viewBox="0 0 218 158" fill="none" xmlns="http://www.w3.org/2000/svg">
<path d="M26.4227 74.7902L7.23208 89.0431L37.9137 75.4383L26.4227 74.7902Z" fill="#0047AE"/>
<path d="M70.5013 61L37.9273 75.4341L49.621 76.0779L70.5013 61Z" fill="#0047AE"/>
<path d="M131.521 19.9903L107.907 37.0181L145.145 20.2269L131.521 19.9903Z" fill="#0047AE"/>
<path d="M184.935 2.32723L145.138 20.2377L158.977 20.5017L184.935 2.32723Z" fill="#0047AE"/>
<path d="M46.2584 113.783L32.8544 123.687L54.6525 115.319L46.2584 113.783Z" fill="#0047AE"/>
<path d="M77.3524 106.57L54.6378 115.324L63.1391 116.819L77.3524 106.57Z" fill="#0047AE"/>
<path d="M166.115 67.6693C166.091 67.5575 166.05 67.4506 165.994 67.3515C165.885 67.0701 165.709 66.8183 165.478 66.6129C165.248 66.4076 164.968 66.2536 164.658 66.1613C164.347 66.069 164.014 66.0405 163.679 66.0779C163.345 66.1152 163.018 66.2175 162.72 66.3778C162.07 66.6689 161.541 67.1612 161.234 67.7611C160.927 68.361 160.863 69.0265 161.055 69.6312C161.055 69.6312 161.14 69.8536 161.176 69.949C160.574 70.4844 160.139 71.1555 159.922 71.8827C159.706 72.6099 159.718 73.3626 159.957 74.0515L161.07 76.9755L133.422 84.4773C133.644 83.7265 133.792 82.9638 133.863 82.1989L134.182 79.276L134.661 75.1639C134.825 74.0502 134.707 72.937 134.316 71.9114C133.926 70.8858 133.274 69.9757 132.412 69.2524L148.761 47.7485L149.475 49.6236C149.702 50.3353 150.184 50.9402 150.848 51.3451C151.512 51.75 152.321 51.9324 153.149 51.864L157.89 59.8108C158.841 61.4501 161.78 60.0405 161.353 58.1656L159.479 48.8364C160.07 48.2014 160.484 47.4502 160.683 46.6548C160.881 45.8594 160.857 45.0464 160.612 44.2935L153.597 25.8598C153.328 25.1059 152.769 24.4843 152.018 24.1043C151.268 23.7243 150.374 23.6104 149.495 23.7825C149.459 23.6387 149.407 23.5001 149.337 23.3693C149.208 23.0417 148.999 22.7497 148.726 22.5137C148.453 22.2778 148.123 22.1036 147.757 22.0034C147.392 21.9033 147.001 21.8795 146.611 21.9339C146.222 21.9882 145.843 22.1194 145.503 22.3181C144.738 22.6959 144.126 23.3038 143.78 24.0304C143.433 24.757 143.374 25.5537 143.615 26.2748C143.647 26.4195 143.7 26.5584 143.772 26.688C143.075 27.3479 142.576 28.1577 142.33 29.0281C142.084 29.8985 142.101 30.7958 142.378 31.621L146.539 42.5542L127.157 68.1229C125.979 68.1952 124.812 68.5027 123.738 69.0238L78.3554 90.8431C77.3346 91.3189 76.4313 91.9992 75.7176 92.8294L49.2605 90.7817L45.1169 80.8608C44.8506 80.2074 44.362 79.6621 43.7189 79.3005C43.0758 78.939 42.31 78.779 41.5277 78.8429C41.5277 78.8429 41.443 78.6204 41.3946 78.4933C41.2927 78.2019 41.1212 77.9391 40.8922 77.7229C40.6631 77.5067 40.3818 77.3422 40.0674 77.2407C39.7531 77.1392 39.4132 77.103 39.071 77.1347C38.7288 77.1664 38.3923 77.2652 38.0847 77.4243C37.4545 77.7786 36.9694 78.322 36.7202 78.9526C36.471 79.5833 36.4748 80.258 36.7308 80.8504C36.7554 80.9737 36.8002 81.0915 36.8639 81.2C36.3154 81.8096 35.9432 82.5301 35.7857 83.2871C35.6282 84.0441 35.6911 84.8104 35.9679 85.5069L42.7926 101.721C43.0361 102.316 43.4644 102.822 44.0279 103.181C44.5914 103.539 45.2669 103.736 45.9763 103.748L50.3677 110.882C50.5356 111.223 50.8502 111.479 51.2423 111.592C51.6344 111.706 52.0718 111.668 52.4584 111.487C52.845 111.306 53.1491 110.997 53.3038 110.628C53.4584 110.258 53.451 109.859 53.2831 109.517L51.2 101.25C51.6627 100.68 51.9709 100.023 52.0965 99.3396C52.2221 98.6563 52.1611 97.9682 51.9191 97.3381L51.3144 95.7489L73.6188 97.5213C73.4748 98.5681 73.5906 99.6127 73.9573 100.576C74.324 101.54 74.932 102.397 75.7355 103.083L78.6594 105.609L80.6962 107.308C81.0439 107.593 81.416 107.853 81.8096 108.085L82.1328 108.29L61.4278 122.646L60.4238 120.008C60.2101 119.443 59.8008 118.969 59.2548 118.654C58.7088 118.339 58.0541 118.199 57.3847 118.254L57.2638 117.936C57.1721 117.694 57.0259 117.475 56.8341 117.294C56.6423 117.112 56.4089 116.971 56.1483 116.88C55.8877 116.788 55.6053 116.748 55.3183 116.761C55.0313 116.775 54.7458 116.842 54.4792 116.958C53.9355 117.229 53.5081 117.671 53.2829 118.195C53.0577 118.72 53.0514 119.288 53.2653 119.785C53.2897 119.896 53.3304 120.003 53.3863 120.103C52.9188 120.59 52.5949 121.174 52.4489 121.794C52.303 122.413 52.3406 123.044 52.5577 123.62L58.3192 137.255C58.5232 137.769 58.8866 138.207 59.3675 138.52C59.8484 138.833 60.427 139.007 61.0363 139.023L64.7054 144.903C64.8574 145.151 65.1046 145.334 65.4032 145.42C65.7018 145.507 66.0324 145.491 66.3364 145.375C66.6404 145.259 66.8981 145.052 67.0637 144.789C67.2294 144.526 67.2922 144.224 67.2412 143.938L65.499 136.997C65.9118 136.533 66.189 135.985 66.3014 135.411C66.4138 134.837 66.3574 134.257 66.138 133.734L63.1908 126.741L88.7106 109.243L89.6052 109.23C90.2067 109.197 90.8082 109.126 91.4054 109.018C92.6674 108.816 93.9039 108.443 95.0737 107.913L96.4666 107.383C98.426 109.42 101.105 110.767 104.101 111.221C107.098 111.675 110.25 111.211 113.085 109.9C116.087 108.515 118.642 106.377 120.431 103.754C122.219 101.131 123.16 98.141 123.135 95.1596L124.6 94.6024C126.154 93.9001 127.582 92.9625 128.82 91.8319C129.395 91.3517 129.92 90.8228 130.386 90.2534L162.954 81.4978L165.905 89.2527C166.139 89.8286 166.557 90.3162 167.107 90.656C167.658 90.9958 168.317 91.173 169.005 91.1658L172.977 97.8411C173.183 98.1116 173.488 98.3046 173.842 98.3901C174.196 98.4757 174.581 98.4488 174.935 98.3139C175.29 98.1789 175.595 97.9434 175.802 97.6441C176.01 97.3447 176.109 96.9982 176.084 96.6586L174.504 88.8548C175.021 88.3509 175.387 87.7367 175.563 87.0795C175.738 86.4222 175.716 85.7474 175.499 85.1288L169.632 69.7144C169.411 69.0435 168.944 68.4776 168.306 68.1069C167.669 67.7362 166.897 67.5822 166.115 67.6693Z" fill="#0047AE"/>
<path d="M135.857 75.3293L162.297 64.9761L152.413 63.6074L135.857 75.3293Z" fill="#0047AE"/>
<path d="M172.237 66.3864L189.899 54.1342L162.257 64.9813L172.237 66.3864Z" fill="#0047AE"/>
<g opacity="0.6">
<path d="M26.4227 74.7902L7.23208 89.0431L37.9137 75.4383L26.4227 74.7902Z" fill="white"/>
<path d="M70.5013 61L37.9273 75.4341L49.621 76.0779L70.5013 61Z" fill="white"/>
<path d="M131.521 19.9903L107.907 37.0181L145.145 20.2269L131.521 19.9903Z" fill="white"/>
<path d="M184.935 2.32723L145.138 20.2377L158.977 20.5017L184.935 2.32723Z" fill="white"/>
<path d="M46.2584 113.783L32.8544 123.687L54.6525 115.319L46.2584 113.783Z" fill="white"/>
<path d="M77.3524 106.57L54.6378 115.324L63.1391 116.819L77.3524 106.57Z" fill="white"/>
<path d="M166.115 67.6693C166.091 67.5575 166.05 67.4506 165.994 67.3515C165.885 67.0701 165.709 66.8183 165.478 66.6129C165.248 66.4076 164.968 66.2536 164.658 66.1613C164.347 66.069 164.014 66.0405 163.679 66.0779C163.345 66.1152 163.018 66.2175 162.72 66.3778C162.07 66.6689 161.541 67.1612 161.234 67.7611C160.927 68.361 160.863 69.0265 161.055 69.6312C161.055 69.6312 161.14 69.8536 161.176 69.949C160.574 70.4844 160.139 71.1555 159.922 71.8827C159.706 72.6099 159.718 73.3626 159.957 74.0515L161.07 76.9755L133.422 84.4773C133.644 83.7265 133.792 82.9638 133.863 82.1989L134.182 79.276L134.661 75.1639C134.825 74.0502 134.707 72.937 134.316 71.9114C133.926 70.8858 133.274 69.9757 132.412 69.2524L148.761 47.7485L149.475 49.6236C149.702 50.3353 150.184 50.9402 150.848 51.3451C151.512 51.75 152.321 51.9324 153.149 51.864L157.89 59.8108C158.841 61.4501 161.78 60.0405 161.353 58.1656L159.479 48.8364C160.07 48.2014 160.484 47.4502 160.683 46.6548C160.881 45.8594 160.857 45.0464 160.612 44.2935L153.597 25.8598C153.328 25.1059 152.769 24.4843 152.018 24.1043C151.268 23.7243 150.374 23.6104 149.495 23.7825C149.459 23.6387 149.407 23.5001 149.337 23.3693C149.208 23.0417 148.999 22.7497 148.726 22.5137C148.453 22.2778 148.123 22.1036 147.757 22.0034C147.392 21.9033 147.001 21.8795 146.611 21.9339C146.222 21.9882 145.843 22.1194 145.503 22.3181C144.738 22.6959 144.126 23.3038 143.78 24.0304C143.433 24.757 143.374 25.5537 143.615 26.2748C143.647 26.4195 143.7 26.5584 143.772 26.688C143.075 27.3479 142.576 28.1577 142.33 29.0281C142.084 29.8985 142.101 30.7958 142.378 31.621L146.539 42.5542L127.157 68.1229C125.979 68.1952 124.812 68.5027 123.738 69.0238L78.3554 90.8431C77.3346 91.3189 76.4313 91.9992 75.7176 92.8294L49.2605 90.7817L45.1169 80.8608C44.8506 80.2074 44.362 79.6621 43.7189 79.3005C43.0758 78.939 42.31 78.779 41.5277 78.8429C41.5277 78.8429 41.443 78.6204 41.3946 78.4933C41.2927 78.2019 41.1212 77.9391 40.8922 77.7229C40.6631 77.5067 40.3818 77.3422 40.0674 77.2407C39.7531 77.1392 39.4132 77.103 39.071 77.1347C38.7288 77.1664 38.3923 77.2652 38.0847 77.4243C37.4545 77.7786 36.9694 78.322 36.7202 78.9526C36.471 79.5833 36.4748 80.258 36.7308 80.8504C36.7554 80.9737 36.8002 81.0915 36.8639 81.2C36.3154 81.8096 35.9432 82.5301 35.7857 83.2871C35.6282 84.0441 35.6911 84.8104 35.9679 85.5069L42.7926 101.721C43.0361 102.316 43.4644 102.822 44.0279 103.181C44.5914 103.539 45.2669 103.736 45.9763 103.748L50.3677 110.882C50.5356 111.223 50.8502 111.479 51.2423 111.592C51.6344 111.706 52.0718 111.668 52.4584 111.487C52.845 111.306 53.1491 110.997 53.3038 110.628C53.4584 110.258 53.451 109.859 53.2831 109.517L51.2 101.25C51.6627 100.68 51.9709 100.023 52.0965 99.3396C52.2221 98.6563 52.1611 97.9682 51.9191 97.3381L51.3144 95.7489L73.6188 97.5213C73.4748 98.5681 73.5906 99.6127 73.9573 100.576C74.324 101.54 74.932 102.397 75.7355 103.083L78.6594 105.609L80.6962 107.308C81.0439 107.593 81.416 107.853 81.8096 108.085L82.1328 108.29L61.4278 122.646L60.4238 120.008C60.2101 119.443 59.8008 118.969 59.2548 118.654C58.7088 118.339 58.0541 118.199 57.3847 118.254L57.2638 117.936C57.1721 117.694 57.0259 117.475 56.8341 117.294C56.6423 117.112 56.4089 116.971 56.1483 116.88C55.8877 116.788 55.6053 116.748 55.3183 116.761C55.0313 116.775 54.7458 116.842 54.4792 116.958C53.9355 117.229 53.5081 117.671 53.2829 118.195C53.0577 118.72 53.0514 119.288 53.2653 119.785C53.2897 119.896 53.3304 120.003 53.3863 120.103C52.9188 120.59 52.5949 121.174 52.4489 121.794C52.303 122.413 52.3406 123.044 52.5577 123.62L58.3192 137.255C58.5232 137.769 58.8866 138.207 59.3675 138.52C59.8484 138.833 60.427 139.007 61.0363 139.023L64.7054 144.903C64.8574 145.151 65.1046 145.334 65.4032 145.42C65.7018 145.507 66.0324 145.491 66.3364 145.375C66.6404 145.259 66.8981 145.052 67.0637 144.789C67.2294 144.526 67.2922 144.224 67.2412 143.938L65.499 136.997C65.9118 136.533 66.189 135.985 66.3014 135.411C66.4138 134.837 66.3574 134.257 66.138 133.734L63.1908 126.741L88.7106 109.243L89.6052 109.23C90.2067 109.197 90.8082 109.126 91.4054 109.018C92.6674 108.816 93.9039 108.443 95.0737 107.913L96.4666 107.383C98.426 109.42 101.105 110.767 104.101 111.221C107.098 111.675 110.25 111.211 113.085 109.9C116.087 108.515 118.642 106.377 120.431 103.754C122.219 101.131 123.16 98.141 123.135 95.1596L124.6 94.6024C126.154 93.9001 127.582 92.9625 128.82 91.8319C129.395 91.3517 129.92 90.8228 130.386 90.2534L162.954 81.4978L165.905 89.2527C166.139 89.8286 166.557 90.3162 167.107 90.656C167.658 90.9958 168.317 91.173 169.005 91.1658L172.977 97.8411C173.183 98.1116 173.488 98.3046 173.842 98.3901C174.196 98.4757 174.581 98.4488 174.935 98.3139C175.29 98.1789 175.595 97.9434 175.802 97.6441C176.01 97.3447 176.109 96.9982 176.084 96.6586L174.504 88.8548C175.021 88.3509 175.387 87.7367 175.563 87.0795C175.738 86.4222 175.716 85.7474 175.499 85.1288L169.632 69.7144C169.411 69.0435 168.944 68.4776 168.306 68.1069C167.669 67.7362 166.897 67.5822 166.115 67.6693Z" fill="white"/>
<path d="M135.857 75.3293L162.297 64.9761L152.413 63.6074L135.857 75.3293Z" fill="white"/>
<path d="M172.237 66.3864L189.899 54.1342L162.257 64.9813L172.237 66.3864Z" fill="white"/>
</g>
</svg>
