<svg width="215" height="142" viewBox="0 0 215 142" fill="none" xmlns="http://www.w3.org/2000/svg">
<path d="M42.9674 19.3175L19.065 19.6371L51.9037 26.5703L42.9674 19.3175Z" fill="#0047AE"/>
<path d="M86.7756 33.9445L51.9173 26.5758L61.0205 33.9438L86.7756 33.9445Z" fill="#0047AE"/>
<path d="M160.257 36.4221L131.145 36.4019L171.164 44.5902L160.257 36.4221Z" fill="#0047AE"/>
<path d="M213.897 53.375L171.147 44.596L182.212 52.9121L213.897 53.375Z" fill="#0047AE"/>
<path d="M36.2181 62.5447L19.5531 62.7265L42.1242 68.704L36.2181 62.5447Z" fill="#0047AE"/>
<path d="M65.65 74.9L42.1103 68.6981L48.1272 74.8871L65.65 74.9Z" fill="#0047AE"/>
<path d="M160.379 95.3288C160.425 95.2244 160.455 95.1139 160.467 95.0003C160.543 94.7083 160.548 94.4013 160.481 94.0999C160.415 93.7985 160.278 93.5098 160.08 93.2533C159.883 92.9967 159.629 92.7784 159.336 92.613C159.043 92.4475 158.718 92.3389 158.383 92.2944C157.685 92.1499 156.968 92.2394 156.368 92.546C155.768 92.8526 155.327 93.3548 155.128 93.9572C155.128 93.9572 155.067 94.1871 155.04 94.2856C154.238 94.367 153.493 94.6564 152.892 95.1194C152.291 95.5824 151.86 96.1996 151.65 96.8978L150.84 99.9197L124.034 89.815C124.654 89.3365 125.22 88.8047 125.726 88.2263L127.696 86.0433L130.492 82.9903C131.276 82.1831 131.832 81.2114 132.116 80.1514C132.4 79.0915 132.404 77.972 132.129 76.8807L157.973 69.0192L157.454 70.9572C157.221 71.667 157.258 72.44 157.559 73.157C157.861 73.874 158.409 74.4951 159.12 74.9244L158.312 84.1429C158.123 86.0286 161.331 86.6065 162.082 84.8363L166.025 76.176C166.876 76.0071 167.652 75.6408 168.278 75.1122C168.905 74.5835 169.361 73.9101 169.603 73.1565L174.708 54.1051C174.931 53.3362 174.842 52.5049 174.456 51.7576C174.07 51.0102 173.412 50.3946 172.598 50.0192C172.654 49.8821 172.692 49.7388 172.713 49.5922C172.8 49.2508 172.802 48.892 172.718 48.5409C172.635 48.1899 172.469 47.855 172.232 47.5599C171.994 47.2647 171.691 47.0165 171.343 46.8325C170.996 46.6485 170.612 46.5333 170.219 46.4949C169.378 46.3536 168.527 46.4883 167.82 46.8743C167.114 47.2604 166.6 47.8721 166.372 48.5974C166.314 48.7337 166.276 48.8772 166.258 49.0244C165.307 49.1515 164.428 49.5159 163.719 50.0776C163.01 50.6393 162.498 51.3764 162.24 52.2077L159.212 63.5072L128.53 72.8887C127.532 72.2573 126.406 71.8234 125.231 71.6175L75.6646 62.7369C74.5585 62.5251 73.4279 62.5477 72.3633 62.8029L52.1131 45.6534L54.5622 35.1846C54.7288 34.4989 54.652 33.7708 54.3423 33.1012C54.0326 32.4316 53.5054 31.8536 52.8337 31.4473C52.8337 31.4473 52.8954 31.2174 52.9306 31.086C53.0185 30.7901 53.0334 30.4767 52.9742 30.1673C52.9151 29.8579 52.7833 29.5599 52.5879 29.2935C52.3925 29.0272 52.1381 28.7989 51.8422 28.6242C51.5462 28.4496 51.2156 28.3327 50.8731 28.2816C50.1547 28.1999 49.4433 28.3564 48.872 28.7217C48.3008 29.0871 47.9088 29.6363 47.7696 30.2665C47.7173 30.3808 47.6847 30.5026 47.6728 30.6278C46.8712 30.8009 46.1477 31.1671 45.5769 31.6886C45.006 32.2101 44.6083 32.8682 44.4249 33.5949L40.4652 50.7352C40.3144 51.36 40.3653 52.021 40.6121 52.6417C40.8589 53.2624 41.2915 53.8173 41.8597 54.2422L41.2431 62.5968C41.1794 62.9719 41.2848 63.3632 41.5362 63.6848C41.7876 64.0063 42.1645 64.2318 42.5838 64.3114C43.0032 64.3911 43.4306 64.3185 43.7722 64.1097C44.1139 63.9008 44.3416 63.5728 44.4054 63.1977L47.5567 55.2758C48.2658 55.0841 48.9002 54.7321 49.4021 54.2517C49.904 53.7712 50.2574 53.1777 50.4301 52.5252L50.8702 50.8828L67.9148 65.3779C67.1853 66.1422 66.6675 67.0569 66.4007 68.0527C66.1339 69.0486 66.1249 70.0996 66.3746 71.1262L67.2662 74.8857L67.9228 77.4556C68.0377 77.8904 68.1874 78.3188 68.3706 78.7374L68.5128 79.0924L43.3222 78.6092L44.0527 75.8829C44.21 75.3 44.1556 74.6762 43.8975 74.101C43.6393 73.5259 43.1907 73.0288 42.6159 72.6814L42.7039 72.3529C42.7714 72.103 42.7808 71.8402 42.7316 71.5807C42.6825 71.3211 42.5758 71.0703 42.4181 70.8435C42.2604 70.6168 42.055 70.4188 41.8144 70.2617C41.5739 70.1046 41.3032 69.9917 41.019 69.9299C40.4196 69.8312 39.8143 69.9394 39.3247 70.2327C38.8351 70.526 38.4975 70.9828 38.3798 71.5111C38.3343 71.6158 38.3047 71.7262 38.2918 71.8396C37.6275 71.961 37.0227 72.2451 36.5418 72.6618C36.0609 73.0786 35.7219 73.6122 35.5609 74.206L32.249 88.633C32.1138 89.1688 32.1517 89.7372 32.3584 90.2723C32.5651 90.8075 32.9321 91.2875 33.417 91.6568L32.9486 98.5724C32.9269 98.8621 33.0201 99.1554 33.2116 99.4002C33.4031 99.645 33.6806 99.8255 33.9948 99.9097C34.309 99.9939 34.6395 99.9763 34.9278 99.86C35.216 99.7438 35.4433 99.5364 35.5694 99.2747L38.221 92.6272C38.8272 92.4928 39.3726 92.211 39.7999 91.8113C40.2272 91.4117 40.5206 90.9089 40.6495 90.3558L42.3538 82.9616L73.2874 83.7163L74.0203 84.2295C74.5271 84.5549 75.0562 84.8496 75.6038 85.1115C76.7453 85.6863 77.9658 86.1083 79.2246 86.3633L80.6642 86.749C81.06 89.5478 82.4434 92.2079 84.6069 94.3302C86.7703 96.4524 89.5971 97.9222 92.6629 98.5191C95.9074 99.1535 99.2312 98.9161 102.216 97.8368C105.202 96.7574 107.715 94.8844 109.441 92.453L110.954 92.8585C112.625 93.199 114.332 93.275 115.998 93.0833C116.745 93.0306 117.48 92.9091 118.192 92.7206L149.721 104.689L147.573 112.704C147.425 113.308 147.479 113.948 147.726 114.546C147.973 115.143 148.404 115.673 148.966 116.07L148.277 123.807C148.287 124.147 148.42 124.482 148.658 124.758C148.895 125.035 149.222 125.238 149.588 125.337C149.955 125.435 150.34 125.422 150.684 125.301C151.027 125.18 151.311 124.957 151.489 124.667L154.777 117.416C155.491 117.31 156.148 117.026 156.675 116.596C157.202 116.166 157.579 115.606 157.765 114.977L162.033 99.0463C162.246 98.3726 162.199 97.6405 161.899 96.9667C161.599 96.293 161.064 95.7163 160.379 95.3288Z" fill="#0047AE"/>
<path d="M131.364 83.8278L158.861 90.9138L151.649 84.0174L131.364 83.8278Z" fill="#0047AE"/>
<path d="M166.091 97.8713L187.583 98.2788L158.823 90.8894L166.091 97.8713Z" fill="#0047AE"/>
<g opacity="0.6">
<path d="M42.9674 19.3175L19.065 19.6371L51.9037 26.5703L42.9674 19.3175Z" fill="white"/>
<path d="M86.7756 33.9445L51.9173 26.5758L61.0205 33.9438L86.7756 33.9445Z" fill="white"/>
<path d="M160.257 36.4221L131.145 36.4019L171.164 44.5902L160.257 36.4221Z" fill="white"/>
<path d="M213.897 53.375L171.147 44.596L182.212 52.9121L213.897 53.375Z" fill="white"/>
<path d="M36.2181 62.5447L19.5531 62.7265L42.1242 68.704L36.2181 62.5447Z" fill="white"/>
<path d="M65.65 74.9L42.1103 68.6981L48.1272 74.8871L65.65 74.9Z" fill="white"/>
<path d="M160.379 95.3288C160.425 95.2244 160.455 95.1139 160.467 95.0003C160.543 94.7083 160.548 94.4013 160.481 94.0999C160.415 93.7985 160.278 93.5098 160.08 93.2533C159.883 92.9967 159.629 92.7784 159.336 92.613C159.043 92.4475 158.718 92.3389 158.383 92.2944C157.685 92.1499 156.968 92.2394 156.368 92.546C155.768 92.8526 155.327 93.3548 155.128 93.9572C155.128 93.9572 155.067 94.1871 155.04 94.2856C154.238 94.367 153.493 94.6564 152.892 95.1194C152.291 95.5824 151.86 96.1996 151.65 96.8978L150.84 99.9197L124.034 89.815C124.654 89.3365 125.22 88.8047 125.726 88.2263L127.696 86.0433L130.492 82.9903C131.276 82.1831 131.832 81.2114 132.116 80.1514C132.4 79.0915 132.404 77.972 132.129 76.8807L157.973 69.0192L157.454 70.9572C157.221 71.667 157.258 72.44 157.559 73.157C157.861 73.874 158.409 74.4951 159.12 74.9244L158.312 84.1429C158.123 86.0286 161.331 86.6065 162.082 84.8363L166.025 76.176C166.876 76.0071 167.652 75.6408 168.278 75.1122C168.905 74.5835 169.361 73.9101 169.603 73.1565L174.708 54.1051C174.931 53.3362 174.842 52.5049 174.456 51.7576C174.07 51.0102 173.412 50.3946 172.598 50.0192C172.654 49.8821 172.692 49.7388 172.713 49.5922C172.8 49.2508 172.802 48.892 172.718 48.5409C172.635 48.1899 172.469 47.855 172.232 47.5599C171.994 47.2647 171.691 47.0165 171.343 46.8325C170.996 46.6485 170.612 46.5333 170.219 46.4949C169.378 46.3536 168.527 46.4883 167.82 46.8743C167.114 47.2604 166.6 47.8721 166.372 48.5974C166.314 48.7337 166.276 48.8772 166.258 49.0244C165.307 49.1515 164.428 49.5159 163.719 50.0776C163.01 50.6393 162.498 51.3764 162.24 52.2077L159.212 63.5072L128.53 72.8887C127.532 72.2573 126.406 71.8234 125.231 71.6175L75.6646 62.7369C74.5585 62.5251 73.4279 62.5477 72.3633 62.8029L52.1131 45.6534L54.5622 35.1846C54.7288 34.4989 54.652 33.7708 54.3423 33.1012C54.0326 32.4316 53.5054 31.8536 52.8337 31.4473C52.8337 31.4473 52.8954 31.2174 52.9306 31.086C53.0185 30.7901 53.0334 30.4767 52.9742 30.1673C52.9151 29.8579 52.7833 29.5599 52.5879 29.2935C52.3925 29.0272 52.1381 28.7989 51.8422 28.6242C51.5462 28.4496 51.2156 28.3327 50.8731 28.2816C50.1547 28.1999 49.4433 28.3564 48.872 28.7217C48.3008 29.0871 47.9088 29.6363 47.7696 30.2665C47.7173 30.3808 47.6847 30.5026 47.6728 30.6278C46.8712 30.8009 46.1477 31.1671 45.5769 31.6886C45.006 32.2101 44.6083 32.8682 44.4249 33.5949L40.4652 50.7352C40.3144 51.36 40.3653 52.021 40.6121 52.6417C40.8589 53.2624 41.2915 53.8173 41.8597 54.2422L41.2431 62.5968C41.1794 62.9719 41.2848 63.3632 41.5362 63.6848C41.7876 64.0063 42.1645 64.2318 42.5838 64.3114C43.0032 64.3911 43.4306 64.3185 43.7722 64.1097C44.1139 63.9008 44.3416 63.5728 44.4054 63.1977L47.5567 55.2758C48.2658 55.0841 48.9002 54.7321 49.4021 54.2517C49.904 53.7712 50.2574 53.1777 50.4301 52.5252L50.8702 50.8828L67.9148 65.3779C67.1853 66.1422 66.6675 67.0569 66.4007 68.0527C66.1339 69.0486 66.1249 70.0996 66.3746 71.1262L67.2662 74.8857L67.9228 77.4556C68.0377 77.8904 68.1874 78.3188 68.3706 78.7374L68.5128 79.0924L43.3222 78.6092L44.0527 75.8829C44.21 75.3 44.1556 74.6762 43.8975 74.101C43.6393 73.5259 43.1907 73.0288 42.6159 72.6814L42.7039 72.3529C42.7714 72.103 42.7808 71.8402 42.7316 71.5807C42.6825 71.3211 42.5758 71.0703 42.4181 70.8435C42.2604 70.6168 42.055 70.4188 41.8144 70.2617C41.5739 70.1046 41.3032 69.9917 41.019 69.9299C40.4196 69.8312 39.8143 69.9394 39.3247 70.2327C38.8351 70.526 38.4975 70.9828 38.3798 71.5111C38.3343 71.6158 38.3047 71.7262 38.2918 71.8396C37.6275 71.961 37.0227 72.2451 36.5418 72.6618C36.0609 73.0786 35.7219 73.6122 35.5609 74.206L32.249 88.633C32.1138 89.1688 32.1517 89.7372 32.3584 90.2723C32.5651 90.8075 32.9321 91.2875 33.417 91.6568L32.9486 98.5724C32.9269 98.8621 33.0201 99.1554 33.2116 99.4002C33.4031 99.645 33.6806 99.8255 33.9948 99.9097C34.309 99.9939 34.6395 99.9763 34.9278 99.86C35.216 99.7438 35.4433 99.5364 35.5694 99.2747L38.221 92.6272C38.8272 92.4928 39.3726 92.211 39.7999 91.8113C40.2272 91.4117 40.5206 90.9089 40.6495 90.3558L42.3538 82.9616L73.2874 83.7163L74.0203 84.2295C74.5271 84.5549 75.0562 84.8496 75.6038 85.1115C76.7453 85.6863 77.9658 86.1083 79.2246 86.3633L80.6642 86.749C81.06 89.5478 82.4434 92.2079 84.6069 94.3302C86.7703 96.4524 89.5971 97.9222 92.6629 98.5191C95.9074 99.1535 99.2312 98.9161 102.216 97.8368C105.202 96.7574 107.715 94.8844 109.441 92.453L110.954 92.8585C112.625 93.199 114.332 93.275 115.998 93.0833C116.745 93.0306 117.48 92.9091 118.192 92.7206L149.721 104.689L147.573 112.704C147.425 113.308 147.479 113.948 147.726 114.546C147.973 115.143 148.404 115.673 148.966 116.07L148.277 123.807C148.287 124.147 148.42 124.482 148.658 124.758C148.895 125.035 149.222 125.238 149.588 125.337C149.955 125.435 150.34 125.422 150.684 125.301C151.027 125.18 151.311 124.957 151.489 124.667L154.777 117.416C155.491 117.31 156.148 117.026 156.675 116.596C157.202 116.166 157.579 115.606 157.765 114.977L162.033 99.0463C162.246 98.3726 162.199 97.6405 161.899 96.9667C161.599 96.293 161.064 95.7163 160.379 95.3288Z" fill="white"/>
<path d="M131.364 83.8278L158.861 90.9138L151.649 84.0174L131.364 83.8278Z" fill="white"/>
<path d="M166.091 97.8713L187.583 98.2788L158.823 90.8894L166.091 97.8713Z" fill="white"/>
</g>
</svg>
