<svg width="216" height="145" viewBox="0 0 216 145" fill="none" xmlns="http://www.w3.org/2000/svg">
<path d="M25.9057 60.7657L5.54572 73.2917L37.2964 62.413L25.9057 60.7657Z" fill="#0047AE"/>
<path d="M71.0168 50.8703L37.3087 62.4102L48.9018 64.0708L71.0168 50.8703Z" fill="#0047AE"/>
<path d="M135.387 15.3333L110.379 30.238L148.938 16.7566L135.387 15.3333Z" fill="#0047AE"/>
<path d="M190.13 2.39416L148.924 16.7676L162.687 18.2369L190.13 2.39416Z" fill="#0047AE"/>
<path d="M42.2692 101.339L28.0529 110.037L50.4975 103.601L42.2692 101.339Z" fill="#0047AE"/>
<path d="M73.8799 96.8656L50.4888 103.606L58.8274 105.836L73.8799 96.8656Z" fill="#0047AE"/>
<path d="M165.686 65.847C165.672 65.7336 165.641 65.6235 165.593 65.5198C165.509 65.23 165.356 64.9638 165.144 64.7392C164.932 64.5145 164.667 64.3367 164.366 64.2177C164.065 64.0987 163.735 64.0413 163.399 64.0494C163.062 64.0574 162.728 64.1308 162.417 64.2645C161.744 64.4979 161.174 64.9422 160.816 65.513C160.458 66.0839 160.336 66.7413 160.475 67.3604C160.475 67.3604 160.54 67.5894 160.567 67.6875C159.921 68.1684 159.429 68.799 159.15 69.5046C158.871 70.2102 158.818 70.9611 158.995 71.6681L159.849 74.678L131.653 79.7413C131.94 79.0128 132.153 78.2659 132.291 77.5102L132.863 74.6261L133.699 70.5714C133.959 69.4763 133.938 68.357 133.639 67.3012C133.339 66.2455 132.769 65.282 131.973 64.4863L150.135 44.4894L150.682 46.4196C150.846 47.1483 151.274 47.793 151.901 48.2543C152.527 48.7155 153.316 48.9676 154.147 48.9717L158.178 57.3015C158.982 59.0175 162.033 57.8694 161.771 55.9644L160.717 46.5073C161.361 45.9263 161.839 45.2141 162.106 44.439C162.373 43.664 162.42 42.8519 162.242 42.0805L156.86 23.1055C156.658 22.331 156.155 21.663 155.44 21.2191C154.726 20.7751 153.846 20.5837 152.954 20.6785C152.932 20.5322 152.892 20.3895 152.834 20.2532C152.733 19.9156 152.551 19.6065 152.3 19.3476C152.049 19.0888 151.734 18.8865 151.379 18.7548C151.024 18.6232 150.636 18.5654 150.243 18.5856C149.851 18.6058 149.462 18.7035 149.105 18.8717C148.311 19.1815 147.648 19.7337 147.24 20.4273C146.831 21.121 146.703 21.9096 146.88 22.6489C146.899 22.7958 146.94 22.9388 147 23.0742C146.249 23.6708 145.681 24.434 145.36 25.2797C145.04 26.1254 144.978 27.0207 145.182 27.8669L148.374 39.1211L126.837 62.9032C125.657 62.8724 124.467 63.077 123.353 63.5026L76.2409 81.2831C75.1825 81.6682 74.2232 82.267 73.4399 83.0319L47.262 78.6859L43.999 68.4416C43.7906 67.7674 43.3514 67.1816 42.7423 66.7654C42.1331 66.3491 41.3842 66.1231 40.5993 66.1185C40.5993 66.1185 40.5343 65.8895 40.4972 65.7586C40.421 65.4595 40.2731 65.1827 40.0638 64.9474C39.8544 64.7121 39.5885 64.5237 39.2842 64.3951C38.9799 64.2666 38.6445 64.201 38.3008 64.2027C37.9571 64.2044 37.6134 64.2735 37.2931 64.4052C36.6344 64.7033 36.1037 65.2023 35.8005 65.8088C35.4972 66.4153 35.4422 67.0878 35.6457 67.7002C35.6594 67.8252 35.6938 67.9465 35.7478 68.0601C35.1482 68.6196 34.7147 69.3049 34.4918 70.0453C34.2689 70.7857 34.2648 71.5545 34.4798 72.2726L39.8652 89.0197C40.056 89.6335 40.4385 90.175 40.9686 90.5814C41.4986 90.9879 42.1545 91.2426 42.8601 91.3162L46.613 98.8059C46.7505 99.1606 47.0416 99.4426 47.4223 99.5899C47.803 99.7371 48.2421 99.7375 48.643 99.591C49.0439 99.4445 49.3738 99.1631 49.5601 98.8086C49.7463 98.4542 49.7737 98.0558 49.6362 97.701L48.2817 89.2837C48.7923 88.7556 49.1566 88.1281 49.3413 87.4584C49.526 86.7886 49.5252 86.0979 49.3391 85.449L48.8751 83.8133L70.9402 87.523C70.7055 88.5532 70.7297 89.604 71.011 90.5958C71.2924 91.5877 71.8234 92.4947 72.564 93.2483L75.2566 96.0193L77.1375 97.8895C77.4591 98.2039 77.8072 98.495 78.179 98.7606L78.4831 98.9924L56.6055 111.489L55.8354 108.774C55.6716 108.193 55.3052 107.685 54.7888 107.324C54.2723 106.962 53.6323 106.765 52.9607 106.761L52.8679 106.434C52.7977 106.185 52.6711 105.955 52.4959 105.757C52.3207 105.559 52.1005 105.399 51.8488 105.285C51.5972 105.171 51.3193 105.106 51.0323 105.095C50.7452 105.083 50.4549 105.125 50.1792 105.217C49.614 105.44 49.1496 105.843 48.8796 106.346C48.6096 106.849 48.5538 107.414 48.7235 107.928C48.7381 108.041 48.7693 108.151 48.8163 108.255C48.3082 108.7 47.9345 109.254 47.7352 109.858C47.5358 110.462 47.5183 111.094 47.6843 111.687L52.2354 125.772C52.3938 126.301 52.7177 126.77 53.1695 127.123C53.6213 127.477 54.1824 127.701 54.7881 127.77L57.9306 133.948C58.0605 134.208 58.2908 134.412 58.5807 134.524C58.8707 134.636 59.2014 134.649 59.5143 134.56C59.8272 134.471 60.1021 134.287 60.29 134.039C60.4779 133.791 60.5668 133.497 60.5409 133.208L59.4104 126.141C59.862 125.714 60.1859 125.193 60.348 124.631C60.51 124.069 60.5043 123.486 60.3314 122.945L58.0049 115.723L84.9528 100.515L85.8451 100.581C86.4472 100.6 87.0526 100.582 87.6569 100.526C88.9318 100.435 90.196 100.171 91.4076 99.7452L92.8414 99.3385C94.6158 101.539 97.1672 103.114 100.113 103.827C103.058 104.541 106.239 104.354 109.177 103.295C112.288 102.177 115.02 100.269 117.03 97.8121C119.04 95.3552 120.239 92.4586 120.474 89.4864L121.981 89.0589C123.591 88.4948 125.095 87.6852 126.427 86.6669C127.042 86.2386 127.611 85.7574 128.125 85.2309L161.332 79.3473L163.596 87.33C163.779 87.924 164.153 88.4463 164.671 88.8327C165.19 89.2192 165.832 89.4532 166.517 89.506L169.892 96.5021C170.074 96.7895 170.361 97.0084 170.706 97.1244C171.052 97.2405 171.437 97.2473 171.802 97.1438C172.167 97.0402 172.491 96.8322 172.724 96.5521C172.957 96.2719 173.086 95.9354 173.09 95.5949L172.197 87.6831C172.756 87.2262 173.174 86.6462 173.406 86.0068C173.638 85.3674 173.675 84.6931 173.512 84.058L169.012 68.1909C168.85 67.5032 168.434 66.8988 167.831 66.474C167.228 66.0491 166.473 65.8284 165.686 65.847Z" fill="#0047AE"/>
<path d="M134.883 70.8434L162.124 62.8342L152.397 60.6091L134.883 70.8434Z" fill="#0047AE"/>
<path d="M171.895 65.1031L190.558 54.4371L162.076 62.8335L171.895 65.1031Z" fill="#0047AE"/>
<g opacity="0.6">
<path d="M25.9057 60.7657L5.54572 73.2917L37.2964 62.413L25.9057 60.7657Z" fill="white"/>
<path d="M71.0168 50.8703L37.3087 62.4102L48.9018 64.0708L71.0168 50.8703Z" fill="white"/>
<path d="M135.387 15.3333L110.379 30.238L148.938 16.7566L135.387 15.3333Z" fill="white"/>
<path d="M190.13 2.39416L148.924 16.7676L162.687 18.2369L190.13 2.39416Z" fill="white"/>
<path d="M42.2692 101.339L28.0529 110.037L50.4975 103.601L42.2692 101.339Z" fill="white"/>
<path d="M73.8721 96.8656L50.481 103.606L58.8195 105.836L73.8721 96.8656Z" fill="white"/>
<path d="M165.686 65.847C165.672 65.7336 165.641 65.6235 165.593 65.5198C165.509 65.23 165.356 64.9638 165.144 64.7392C164.932 64.5145 164.667 64.3367 164.366 64.2177C164.065 64.0987 163.735 64.0413 163.399 64.0494C163.062 64.0574 162.728 64.1308 162.417 64.2645C161.744 64.4979 161.174 64.9422 160.816 65.513C160.458 66.0839 160.336 66.7413 160.475 67.3604C160.475 67.3604 160.54 67.5894 160.567 67.6875C159.921 68.1684 159.429 68.799 159.15 69.5046C158.871 70.2102 158.818 70.9611 158.995 71.6681L159.849 74.678L131.653 79.7413C131.94 79.0128 132.153 78.2659 132.291 77.5102L132.863 74.6261L133.699 70.5714C133.959 69.4763 133.938 68.357 133.639 67.3012C133.339 66.2455 132.769 65.282 131.973 64.4863L150.135 44.4894L150.682 46.4196C150.846 47.1483 151.274 47.793 151.901 48.2543C152.527 48.7155 153.316 48.9676 154.147 48.9717L158.178 57.3015C158.982 59.0175 162.033 57.8694 161.771 55.9644L160.717 46.5073C161.361 45.9263 161.839 45.2141 162.106 44.439C162.373 43.664 162.42 42.8519 162.242 42.0805L156.86 23.1055C156.658 22.331 156.155 21.663 155.44 21.2191C154.726 20.7751 153.846 20.5837 152.954 20.6785C152.932 20.5322 152.892 20.3895 152.834 20.2532C152.733 19.9156 152.551 19.6065 152.3 19.3476C152.049 19.0888 151.734 18.8865 151.379 18.7548C151.024 18.6232 150.636 18.5654 150.243 18.5856C149.851 18.6058 149.462 18.7035 149.105 18.8717C148.311 19.1815 147.648 19.7337 147.24 20.4273C146.831 21.121 146.703 21.9096 146.88 22.6489C146.899 22.7958 146.94 22.9388 147 23.0742C146.249 23.6708 145.681 24.434 145.36 25.2797C145.04 26.1254 144.978 27.0207 145.182 27.8669L148.374 39.1211L126.837 62.9032C125.657 62.8724 124.467 63.077 123.353 63.5026L76.2409 81.2831C75.1825 81.6682 74.2232 82.267 73.4399 83.0319L47.262 78.6859L43.999 68.4416C43.7906 67.7674 43.3514 67.1816 42.7423 66.7654C42.1331 66.3491 41.3842 66.1231 40.5993 66.1185C40.5993 66.1185 40.5343 65.8895 40.4972 65.7586C40.421 65.4595 40.2731 65.1827 40.0638 64.9474C39.8544 64.7121 39.5885 64.5237 39.2842 64.3951C38.9799 64.2666 38.6445 64.201 38.3008 64.2027C37.9571 64.2044 37.6134 64.2735 37.2931 64.4052C36.6344 64.7033 36.1037 65.2023 35.8005 65.8088C35.4972 66.4153 35.4422 67.0878 35.6457 67.7002C35.6594 67.8252 35.6938 67.9465 35.7478 68.0601C35.1482 68.6196 34.7147 69.3049 34.4918 70.0453C34.2689 70.7857 34.2648 71.5545 34.4798 72.2726L39.8652 89.0197C40.056 89.6335 40.4385 90.175 40.9686 90.5814C41.4986 90.9879 42.1545 91.2426 42.8601 91.3162L46.613 98.8059C46.7505 99.1606 47.0416 99.4426 47.4223 99.5899C47.803 99.7371 48.2421 99.7375 48.643 99.591C49.0439 99.4445 49.3738 99.1631 49.5601 98.8086C49.7463 98.4542 49.7737 98.0558 49.6362 97.701L48.2817 89.2837C48.7923 88.7556 49.1566 88.1281 49.3413 87.4584C49.526 86.7886 49.5252 86.0979 49.3391 85.449L48.8751 83.8133L70.9402 87.523C70.7055 88.5532 70.7297 89.604 71.011 90.5958C71.2924 91.5877 71.8234 92.4947 72.564 93.2483L75.2566 96.0193L77.1375 97.8895C77.4591 98.2039 77.8072 98.495 78.179 98.7606L78.4831 98.9924L56.6055 111.489L55.8354 108.774C55.6716 108.193 55.3052 107.685 54.7888 107.324C54.2723 106.962 53.6323 106.765 52.9607 106.761L52.8679 106.434C52.7977 106.185 52.6711 105.955 52.4959 105.757C52.3207 105.559 52.1005 105.399 51.8488 105.285C51.5972 105.171 51.3193 105.106 51.0323 105.095C50.7452 105.083 50.4549 105.125 50.1792 105.217C49.614 105.44 49.1496 105.843 48.8796 106.346C48.6096 106.849 48.5538 107.414 48.7235 107.928C48.7381 108.041 48.7693 108.151 48.8163 108.255C48.3082 108.7 47.9345 109.254 47.7352 109.858C47.5358 110.462 47.5183 111.094 47.6843 111.687L52.2354 125.772C52.3938 126.301 52.7177 126.77 53.1695 127.123C53.6213 127.477 54.1824 127.701 54.7881 127.77L57.9306 133.948C58.0605 134.208 58.2908 134.412 58.5807 134.524C58.8707 134.636 59.2014 134.649 59.5143 134.56C59.8272 134.471 60.1021 134.287 60.29 134.039C60.4779 133.791 60.5668 133.497 60.5409 133.208L59.4104 126.141C59.862 125.714 60.1859 125.193 60.348 124.631C60.51 124.069 60.5043 123.486 60.3314 122.945L58.0049 115.723L84.9528 100.515L85.8451 100.581C86.4472 100.6 87.0526 100.582 87.6569 100.526C88.9318 100.435 90.196 100.171 91.4076 99.7452L92.8414 99.3385C94.6158 101.539 97.1672 103.114 100.113 103.827C103.058 104.541 106.239 104.354 109.177 103.295C112.288 102.177 115.02 100.269 117.03 97.8121C119.04 95.3552 120.239 92.4586 120.474 89.4864L121.981 89.0589C123.591 88.4948 125.095 87.6852 126.427 86.6669C127.042 86.2386 127.611 85.7574 128.125 85.2309L161.332 79.3473L163.596 87.33C163.779 87.924 164.153 88.4463 164.671 88.8327C165.19 89.2192 165.832 89.4532 166.517 89.506L169.892 96.5021C170.074 96.7895 170.361 97.0084 170.706 97.1244C171.052 97.2405 171.437 97.2473 171.802 97.1438C172.167 97.0402 172.491 96.8322 172.724 96.5521C172.957 96.2719 173.086 95.9354 173.09 95.5949L172.197 87.6831C172.756 87.2262 173.174 86.6462 173.406 86.0068C173.638 85.3674 173.675 84.6931 173.512 84.058L169.012 68.1909C168.85 67.5032 168.434 66.8988 167.831 66.474C167.228 66.0491 166.473 65.8284 165.686 65.847Z" fill="white"/>
<path d="M134.883 70.8434L162.124 62.8342L152.397 60.6091L134.883 70.8434Z" fill="white"/>
<path d="M171.895 65.1031L190.558 54.4371L162.076 62.8335L171.895 65.1031Z" fill="white"/>
</g>
</svg>
