<svg width="335" height="201" viewBox="0 0 335 201" fill="none" xmlns="http://www.w3.org/2000/svg">
<path d="M175.311 135.986C174.566 136.215 173.775 136.274 173.014 136.155L69.7508 118.743C68.8665 118.482 68.1317 117.938 67.6833 117.212C67.2348 116.485 67.1034 115.626 67.3137 114.794C67.5239 113.962 68.0613 113.215 68.8258 112.691C69.5902 112.167 70.5295 111.903 71.4683 111.947L174.984 129.151C175.512 129.225 176.012 129.397 176.455 129.656C176.897 129.914 177.271 130.254 177.553 130.654C177.836 131.054 178.022 131.506 178.098 131.98C178.174 132.455 178.14 132.943 177.997 133.413C177.799 133.994 177.452 134.529 176.985 134.976C176.518 135.423 175.945 135.769 175.311 135.986Z" fill="#263238"/>
<path d="M92.8442 172.994C92.0007 173.265 91.092 173.275 90.2657 173.023C89.4394 172.772 88.7441 172.273 88.2927 171.608C88.0169 171.24 87.8342 170.819 87.7566 170.375C87.6791 169.93 87.7085 169.472 87.843 169.031C87.9775 168.589 88.214 168.175 88.5368 167.814C88.8595 167.454 89.2612 167.156 89.7152 166.94L170.265 124.736C171.226 124.218 172.359 124.046 173.424 124.259C174.489 124.471 175.403 125.051 175.971 125.875C176.229 126.288 176.389 126.747 176.441 127.224C176.493 127.701 176.437 128.187 176.276 128.652C176.115 129.118 175.852 129.553 175.502 129.932C175.153 130.312 174.725 130.627 174.244 130.859L93.5301 172.769L92.8442 172.994Z" fill="#263238"/>
<path d="M175.269 135.978C174.594 136.193 173.877 136.259 173.181 136.168C172.485 136.078 171.832 135.834 171.28 135.458C170.862 135.176 170.518 134.817 170.268 134.403C170.018 133.99 169.868 133.532 169.827 133.056C169.786 132.581 169.856 132.099 170.031 131.64C170.206 131.182 170.483 130.756 170.845 130.391L248.186 49.4797C248.97 48.6176 250.074 48.0378 251.28 47.8551C252.486 47.6724 253.706 47.9002 254.697 48.4934C255.147 48.8102 255.514 49.2103 255.775 49.6683C256.037 50.1263 256.187 50.6322 256.215 51.1538C256.244 51.6753 256.151 52.2011 255.942 52.6976C255.733 53.1942 255.413 53.6505 255.002 54.0377L177.193 134.777C176.673 135.317 176.009 135.731 175.269 135.978Z" fill="#263238"/>
<path d="M274.04 116.187L273.161 116.351L172.65 131.289C172.116 131.38 171.571 131.375 171.048 131.276C170.525 131.176 170.034 130.982 169.603 130.707C169.172 130.431 168.811 130.079 168.54 129.671C168.268 129.263 168.093 128.807 168.023 128.33C167.944 127.357 168.287 126.379 168.982 125.598C169.677 124.817 170.67 124.295 171.754 124.138L272.412 108.817C272.981 108.702 273.565 108.691 274.129 108.786C274.692 108.881 275.224 109.079 275.69 109.368C276.156 109.657 276.547 110.031 276.84 110.468C277.132 110.904 277.319 111.393 277.39 111.905C277.437 112.833 277.132 113.762 276.524 114.539C275.915 115.317 275.04 115.898 274.04 116.187Z" fill="#263238"/>
<path d="M78.4485 130.688L75.0313 131.875C73.4539 132.375 71.747 132.311 70.2736 131.696C68.8003 131.082 67.6766 129.966 67.1417 128.585L57.0936 102.969C56.5515 101.554 56.6532 99.9812 57.3771 98.5838C58.1011 97.1864 59.3908 96.0733 60.9739 95.4794L64.3795 94.2297C65.1667 93.9488 66.002 93.8096 66.8363 93.8203C67.6707 93.8309 68.4871 93.9911 69.2379 94.2916C69.9887 94.5921 70.6586 95.0267 71.2083 95.57C71.758 96.1132 72.1765 96.7542 72.4391 97.4552L82.3463 123.292C82.6221 123.987 82.7401 124.729 82.6935 125.477C82.6468 126.225 82.4364 126.964 82.0744 127.651C81.7124 128.338 81.2058 128.959 80.5837 129.48C79.9615 130.002 79.236 130.412 78.4485 130.688Z" fill="#263238"/>
<path d="M66.3889 93.2872C66.7466 94.2455 66.6632 95.3076 66.1569 96.244C65.6506 97.1804 64.762 97.9159 63.6829 98.2917C63.1547 98.4821 62.593 98.5748 62.0327 98.5638C61.4724 98.5529 60.9254 98.4387 60.4257 98.2282C59.9259 98.0178 59.484 97.7156 59.1275 97.3404C58.7709 96.9651 58.5073 96.5249 58.3529 96.047C58.171 95.5728 58.0967 95.067 58.1342 94.5588C58.1718 94.0505 58.3205 93.5497 58.5718 93.0849C58.8231 92.6201 59.1721 92.2004 59.5989 91.85C60.0256 91.4995 60.5218 91.2251 61.0589 91.0425C61.5874 90.8568 62.1481 90.7679 62.7067 90.7811C63.2653 90.7943 63.8103 90.9093 64.3088 91.1192C64.8072 91.3291 65.2486 91.6295 65.6061 92.0021C65.9637 92.3748 66.23 92.812 66.3889 93.2872Z" fill="#263238"/>
<path d="M60.0778 88.1186L42.9956 89.9737L8.90202 105.197L60.0778 88.1186Z" fill="#263238"/>
<path d="M60.0786 88.1312L77.3719 86.2369L114.367 69.9876L60.0786 88.1312Z" fill="#263238"/>
<path d="M260.23 68.7833L256.021 70.2149C255.134 70.5587 254.185 70.742 253.233 70.7542C252.28 70.7663 251.343 70.607 250.475 70.2856C249.608 69.9642 248.829 69.4873 248.184 68.883C247.539 68.2787 247.041 67.5593 246.72 66.7674L236.698 38.1678C236.207 36.4605 236.463 34.6226 237.413 33.0225C238.363 31.4224 239.938 30.1784 241.822 29.5399L246.048 28.0079C246.935 27.6489 247.887 27.4513 248.846 27.427C249.805 27.4026 250.751 27.552 251.629 27.8662C252.506 28.1804 253.296 28.6529 253.951 29.2555C254.607 29.858 255.114 30.5783 255.443 31.373L265.494 60.3234C265.967 62.0249 265.685 63.8521 264.705 65.4268C263.725 67.0016 262.123 68.2033 260.23 68.7833Z" fill="#263238"/>
<path d="M248.74 26.8237C249.06 27.9617 248.883 29.1843 248.244 30.2461C247.605 31.308 246.551 32.1306 245.295 32.5487C244.721 32.7894 244.103 32.9262 243.479 32.9512C242.855 32.9762 242.237 32.8888 241.661 32.6942C241.086 32.4996 240.564 32.2017 240.128 31.8182C239.692 31.4347 239.349 30.9733 239.121 30.4613C238.791 29.3247 238.959 28.0999 239.59 27.0333C240.222 25.9666 241.27 25.137 242.525 24.7115C243.103 24.4609 243.727 24.3167 244.358 24.288C244.99 24.2592 245.616 24.3464 246.198 24.5442C246.78 24.742 247.306 25.0463 247.743 25.4383C248.18 25.8303 248.519 26.3017 248.74 26.8237Z" fill="#263238"/>
<path d="M241.756 22.3559L221.392 24.952L179.549 43.3024L241.756 22.3559Z" fill="#263238"/>
<path d="M241.756 22.3544L262.478 19.7242L308.213 0.00108327L241.756 22.3544Z" fill="#263238"/>
<path d="M99.8953 186.934L96.9002 187.848C95.53 188.246 94.0639 188.167 92.8005 187.626C91.5371 187.086 90.5714 186.125 90.1001 184.938L81.7591 163.408C81.5315 162.824 81.4384 162.201 81.4852 161.574C81.5321 160.947 81.7179 160.33 82.0319 159.759C82.3458 159.187 82.7815 158.673 83.3133 158.247C83.8451 157.821 84.4622 157.49 85.1283 157.276L88.0825 156.337C89.4541 155.902 90.9381 155.953 92.2233 156.48C93.5085 157.008 94.4951 157.969 94.9764 159.164L103.317 180.889C103.538 181.47 103.625 182.09 103.572 182.712C103.518 183.334 103.327 183.946 103.007 184.51C102.688 185.074 102.248 185.579 101.713 185.996C101.178 186.412 100.56 186.731 99.8953 186.934Z" fill="#263238"/>
<path d="M89.8863 155.549C90.1803 156.34 90.1083 157.216 89.686 157.986C89.2637 158.756 88.5253 159.358 87.6323 159.66C87.1823 159.813 86.7066 159.884 86.233 159.871C85.7595 159.857 85.2977 159.759 84.8749 159.581C84.452 159.403 84.0766 159.15 83.7706 158.836C83.4646 158.523 83.2342 158.154 83.093 157.754C82.81 156.966 82.8882 156.097 83.3109 155.334C83.7336 154.571 84.4669 153.975 85.3528 153.674C85.8002 153.522 86.2733 153.449 86.7444 153.461C87.2155 153.473 87.6753 153.569 88.0971 153.744C88.519 153.918 88.8944 154.168 89.2015 154.477C89.5087 154.787 89.7414 155.152 89.8863 155.549Z" fill="#263238"/>
<path d="M85.2815 153.388L73.3215 154.224L49.4633 164.627L85.2815 153.388Z" fill="#263238"/>
<path d="M85.2788 153.403L97.3503 152.578L122.609 141.688L85.2788 153.403Z" fill="#263238"/>
<path d="M281.785 131.59L278.169 132.685C276.628 133.192 274.954 133.156 273.493 132.585C272.032 132.013 270.896 130.95 270.32 129.614L261.917 105.602C261.5 104.183 261.733 102.649 262.566 101.336C263.398 100.023 264.761 99.0359 266.359 98.5905L269.993 97.3954C271.533 96.8716 273.215 96.8994 274.681 97.4729C276.147 98.0463 277.281 99.1202 277.842 100.466L286.268 124.798C286.621 126.194 286.351 127.68 285.515 128.947C284.679 130.213 283.343 131.16 281.785 131.59Z" fill="#263238"/>
<path d="M272.164 96.5005C272.422 97.4489 272.255 98.466 271.698 99.337C271.14 100.208 270.236 100.865 269.176 101.169C268.669 101.357 268.129 101.455 267.588 101.456C267.047 101.458 266.516 101.363 266.025 101.178C265.533 100.992 265.092 100.72 264.726 100.376C264.36 100.032 264.077 99.6238 263.893 99.1744C263.626 98.2554 263.765 97.2649 264.281 96.4048C264.797 95.5447 265.651 94.8798 266.669 94.5454C267.186 94.326 267.743 94.2026 268.306 94.183C268.869 94.1633 269.426 94.2479 269.942 94.4313C270.457 94.6147 270.92 94.8931 271.303 95.2491C271.685 95.6051 271.978 96.0311 272.164 96.5005Z" fill="#263238"/>
<path d="M265.707 91.2373L251.538 92.5173L222.21 105.007L265.707 91.2373Z" fill="#263238"/>
<path d="M265.661 91.2419L280.018 89.9917L311.185 76.8354L265.661 91.2419Z" fill="#263238"/>
<path d="M201.584 131.082L151.904 146.813C147.945 148.09 143.714 148.371 139.682 147.624C135.651 146.878 131.976 145.133 129.068 142.585L121.205 135.534C119.801 134.252 118.797 132.657 118.287 130.899C117.777 129.141 117.778 127.277 118.29 125.481C118.802 123.685 119.809 122.015 121.215 120.628C122.621 119.241 124.381 118.182 126.332 117.549L202.929 91.6226C204.972 90.8132 207.194 90.4899 209.372 90.6851C211.551 90.8804 213.61 91.5872 215.344 92.7352C217.079 93.8831 218.428 95.432 219.257 97.2273C220.086 99.0227 220.366 101.002 220.069 102.967L218.178 113.712C217.411 117.634 215.454 121.334 212.525 124.401C209.595 127.467 205.808 129.78 201.584 131.082Z" fill="#263238"/>
<path d="M209.469 159.604C210.053 159.438 210.565 159.1 210.917 158.645C211.27 158.19 211.442 157.647 211.405 157.106L209.571 139.058C209.55 138.766 209.463 138.483 209.315 138.227C209.167 137.97 208.962 137.746 208.711 137.567L188.849 122.941C188.601 122.721 188.302 122.552 187.972 122.444C187.641 122.336 187.286 122.293 186.93 122.315C186.573 122.338 186.223 122.428 185.901 122.578C185.579 122.727 185.293 122.935 185.06 123.186C184.827 123.437 184.654 123.727 184.55 124.037C184.447 124.346 184.416 124.669 184.459 124.985C184.502 125.301 184.618 125.602 184.8 125.87C184.983 126.138 185.227 126.366 185.518 126.541L204.583 140.602L206.278 157.705C206.339 158.307 206.665 158.853 207.184 159.223C207.703 159.593 208.372 159.758 209.047 159.682L209.469 159.604Z" fill="#263238"/>
<path d="M165.011 174.575C165.203 174.573 165.394 174.538 165.574 174.47C166.178 174.172 166.636 173.675 166.847 173.09C167.059 172.505 167.006 171.878 166.702 171.346L157.98 156.362L164.083 134.439C164.239 133.838 164.129 133.216 163.776 132.706C163.422 132.197 162.854 131.841 162.193 131.715C161.538 131.597 160.847 131.717 160.269 132.049C159.691 132.381 159.272 132.898 159.103 133.489L152.759 156.266C152.66 156.809 152.763 157.359 153.05 157.83L162.205 173.576C162.474 174 162.894 174.327 163.4 174.507C163.907 174.688 164.473 174.712 165.011 174.575Z" fill="#263238"/>
<path d="M141.76 119.925C138.247 110.057 147.265 98.3078 161.66 93.5538C176.056 88.7997 190.079 93.1804 193.574 102.76C197.069 112.341 186.294 117.78 172.08 122.533C157.866 127.285 145.248 129.863 141.76 119.925Z" fill="#263238"/>
<path d="M163.759 112.965C163.955 113.493 164.268 113.977 164.68 114.387C165.092 114.797 165.596 115.125 166.16 115.352C166.725 115.578 167.339 115.699 167.967 115.707C168.595 115.715 169.224 115.61 169.816 115.398C171.039 114.994 172.058 114.185 172.658 113.142C173.259 112.1 173.393 110.906 173.032 109.813C172.833 109.288 172.518 108.809 172.104 108.403C171.691 107.997 171.188 107.672 170.624 107.449C170.06 107.225 169.448 107.106 168.823 107.1C168.197 107.094 167.571 107.199 166.982 107.411C165.76 107.808 164.74 108.61 164.138 109.648C163.536 110.685 163.4 111.875 163.759 112.965Z" fill="white"/>
<path d="M181.235 107.03C181.434 107.555 181.75 108.034 182.163 108.44C182.577 108.846 183.08 109.17 183.644 109.394C184.207 109.618 184.82 109.736 185.445 109.743C186.071 109.749 186.696 109.644 187.286 109.432C188.506 109.028 189.522 108.218 190.117 107.176C190.711 106.133 190.837 104.941 190.467 103.853C190.268 103.328 189.953 102.849 189.539 102.443C189.126 102.037 188.623 101.712 188.059 101.489C187.495 101.265 186.883 101.146 186.257 101.14C185.632 101.134 185.006 101.239 184.416 101.451C183.191 101.848 182.169 102.657 181.573 103.701C180.977 104.746 180.856 105.942 181.235 107.03Z" fill="white"/>
<path d="M146.301 118.94C146.5 119.465 146.815 119.944 147.229 120.35C147.642 120.756 148.146 121.08 148.709 121.304C149.273 121.528 149.885 121.647 150.511 121.653C151.136 121.659 151.762 121.554 152.352 121.342C153.565 120.939 154.576 120.135 155.171 119.1C155.766 118.065 155.898 116.879 155.539 115.794C155.344 115.266 155.031 114.783 154.618 114.373C154.206 113.963 153.702 113.635 153.138 113.408C152.573 113.181 151.959 113.06 151.331 113.052C150.703 113.044 150.075 113.149 149.482 113.361C148.262 113.765 147.246 114.575 146.652 115.617C146.057 116.659 145.931 117.852 146.301 118.94Z" fill="white"/>
</svg>
