<svg width="323" height="96" viewBox="0 0 323 96" fill="none" xmlns="http://www.w3.org/2000/svg">
<path d="M317.916 69.1321C313.916 67.6394 309.687 66.86 305.419 66.8289C301.368 66.4834 300.069 65.6773 299.305 64.7944C295.415 59.1811 289.735 55.0683 283.204 53.135C276.673 51.2018 269.68 51.5638 263.381 54.1612C261.614 48.6571 257.85 44.0222 252.838 41.1774C247.825 38.3327 241.93 37.4863 236.324 38.8064C236.783 26.1387 220.656 12.5113 206.172 9.44038C192.299 6.4462 180.184 7.71295 172.274 16.8874C163.79 0.265876 130.58 -4.4557 112.58 4.3733C102.223 9.402 93.4716 14.6226 89.1531 24.1426C86.3371 30.0351 85.0238 36.5384 85.3315 43.0674C78.2997 36.8487 64.2743 35.1597 54.7584 38.8064C44.6693 42.6451 43.905 50.3225 43.2935 57.9999C37.3013 56.2745 30.9637 56.1553 24.9114 57.6544C18.5293 59.5738 14.8988 64.5641 15.7395 68.6331C10.7332 68.326 -1.26671 72.4718 0.10908 77.7692C1.67595 83.7575 15.3956 83.1434 20.4783 82.9514C25.2929 82.5615 30.071 81.8044 34.7712 80.6866C37.1533 81.5949 39.6757 82.0757 42.2234 82.1069C50.9368 82.1069 54.6438 78.2682 56.0196 75.0437C60.2616 84.0646 75.4334 90.8975 86.134 93.6614C106.274 98.8436 134.783 95.6575 147.28 80.533C148.742 83.3865 150.786 85.898 153.28 87.9033C158.607 92.2535 165.096 94.9246 171.93 95.5807C180.184 96.3869 202.503 97.4233 208.656 84.0646C213.089 92.8553 232.885 96.8475 247.904 94.6978C253.783 93.8907 259.513 92.2223 264.91 89.7459C268.233 87.9873 271.46 86.0524 274.579 83.9495C275.775 83.1134 277.174 82.6183 278.627 82.5169C280.08 82.4156 281.534 82.7116 282.833 83.3737C293.456 87.1345 305.039 87.1345 315.661 83.3737C324.069 79.8037 325.827 72.7405 317.916 69.1321Z" fill="white"/>
</svg>
